<?xml version="1.0" encoding="iso-8859-1"?>
<!-- Generator: Adobe Illustrator 17.1.0, SVG Export Plug-In . SVG Version: 6.00 Build 0)  -->
<!DOCTYPE svg PUBLIC "-//W3C//DTD SVG 1.0//EN" "http://www.w3.org/TR/2001/REC-SVG-20010904/DTD/svg10.dtd">
<svg version="1.0" id="Layer_1" xmlns="http://www.w3.org/2000/svg" xmlns:xlink="http://www.w3.org/1999/xlink" x="0px" y="0px"
	 viewBox="0 0 22.25 24.398" style="enable-background:new 0 0 22.25 24.398;" xml:space="preserve">
<g>
	<g>
		<defs>
			<rect id="SVGID_1_" y="0" width="22.8" height="25"/>
		</defs>
		<clipPath id="SVGID_2_">
			<use xlink:href="#SVGID_1_"  style="overflow:visible;"/>
		</clipPath>
		<linearGradient id="SVGID_3_" gradientUnits="userSpaceOnUse" x1="-0.7987" y1="13.6528" x2="21.3442" y2="11.7156">
			<stop  offset="0" style="stop-color:#32A456"/>
			<stop  offset="1" style="stop-color:#287E41"/>
		</linearGradient>
		<path style="clip-path:url(#SVGID_2_);fill:url(#SVGID_3_);" d="M22.266,22.348l-0.692-3.899
			c-0.183-1.035-1.136-2.016-2.168-2.234l-5.16-1.09c0.969-0.942,1.715-2.246,2.211-3.559c0.641-0.23,1.285-0.8,1.469-1.543
			c0.246-0.984-0.016-1.863-0.625-2.246V7.086c0.558-1.684,0.847-4.43-1.684-5.906c-1.133-0.664-2.074-0.707-2.785-0.473
			C12.723,0.418,13.055,0,13.055,0c-0.586-0.02-0.891,0.293-1.02,0.465c-0.777-0.356-1.797-0.508-3.101-0.235
			C4.75,1.105,4.215,6.59,4.98,7.793c-0.597,0.383-0.851,1.25-0.609,2.226c0.188,0.747,0.836,1.317,1.477,1.547
			c0.488,1.317,1.226,2.621,2.199,3.559l-5.156,1.086c-1.032,0.219-1.981,1.203-2.164,2.238l-0.696,3.899
			c-0.097,0.539,0.031,1.05,0.364,1.445c0.328,0.39,0.808,0.605,1.355,0.605h18.797c0.547,0,1.031-0.215,1.359-0.605
			C22.234,23.398,22.363,22.887,22.266,22.348L22.266,22.348z M21.293,23.277c-0.176,0.211-0.438,0.324-0.746,0.324h-3.656v-0.933
			h4.586C21.48,22.898,21.43,23.113,21.293,23.277L21.293,23.277z M1.75,23.601c-0.305,0-0.57-0.117-0.746-0.324
			c-0.137-0.164-0.188-0.379-0.184-0.609h4.586v0.933H1.75z M6.203,23.601v-2.285c0-0.222-0.176-0.398-0.398-0.398
			c-0.223,0-0.399,0.176-0.399,0.398v0.551h-4.48l0.586-3.277c0.125-0.715,0.832-1.449,1.543-1.598l3.648-0.769
			c1.184,1.175,2.797,1.851,4.473,1.851c1.691,0,3.265-0.652,4.465-1.84l3.597,0.758c0.711,0.152,1.418,0.883,1.547,1.598
			l0.582,3.277h-4.476v-0.551c0-0.222-0.18-0.398-0.399-0.398c-0.222,0-0.402,0.176-0.402,0.398v2.285H6.203z M11.148,16.508
			c0.852,0,1.618-0.282,2.297-0.735l1.231,0.258c-0.988,0.805-2.203,1.242-3.5,1.242c-1.281,0-2.52-0.449-3.504-1.25l1.172-0.25
			C9.527,16.23,10.293,16.508,11.148,16.508L11.148,16.508z M6.512,10.785c-0.34,0.074-1.125-0.355-1.282-0.977
			C5.074,9.176,5.223,8.582,5.57,8.484C5.672,8.457,5.777,8.48,5.883,8.535V7.59c0-0.004,0.004-0.008,0.004-0.012
			c0-0.012-0.004-0.027-0.004-0.043V7.211c0.086-0.805,0.844-2.328,5.023-0.957c1.442,0.472,2.328-0.278,2.778-1.266
			c1.418,0.156,2.367,1.77,2.73,2.762v0.785c0.051-0.027,0.106-0.051,0.156-0.059c0,0.008,0,0.02-0.004,0.028
			c0.012,0.015,0.036,0.004,0.063-0.024c0.035,0,0.066-0.007,0.098,0.004c0.343,0.098,0.496,0.688,0.335,1.324
			c-0.152,0.618-0.933,1.04-1.269,0.977c-0.453,1.375-1.355,3.137-2.641,4.109c-0.156,0.114-0.316,0.215-0.484,0.309
			c-0.23,0.129-0.477,0.234-0.73,0.305c-0.254,0.066-0.52,0.109-0.79,0.109c-0.277,0-0.546-0.039-0.8-0.109
			c-0.258-0.071-0.504-0.176-0.739-0.301c-0.164-0.094-0.328-0.195-0.48-0.313C7.852,13.937,6.965,12.195,6.512,10.785L6.512,10.785
			z M6.512,10.785"/>
	</g>
</g>
</svg>
