<?xml version="1.0" encoding="iso-8859-1"?>
<!-- Generator: Adobe Illustrator 17.1.0, SVG Export Plug-In . SVG Version: 6.00 Build 0)  -->
<!DOCTYPE svg PUBLIC "-//W3C//DTD SVG 1.1//EN" "http://www.w3.org/Graphics/SVG/1.1/DTD/svg11.dtd">
<svg version="1.1" id="Layer_1" xmlns="http://www.w3.org/2000/svg" xmlns:xlink="http://www.w3.org/1999/xlink" x="0px" y="0px"
	 viewBox="0 0 69.2 69.2" style="enable-background:new 0 0 69.2 69.2;" xml:space="preserve">
<g>
	<defs>
		<rect id="SVGID_1_" width="69.2" height="69.2"/>
	</defs>
	<clipPath id="SVGID_2_">
		<use xlink:href="#SVGID_1_"  style="overflow:visible;"/>
	</clipPath>
	<linearGradient id="SVGID_3_" gradientUnits="userSpaceOnUse" x1="34.4531" y1="0.5435" x2="34.7516" y2="69.7428">
		<stop  offset="0" style="stop-color:#32A457"/>
		<stop  offset="1" style="stop-color:#267D42"/>
	</linearGradient>
	<path style="clip-path:url(#SVGID_2_);fill:url(#SVGID_3_);" d="M34.6,0C15.52,0,0,15.52,0,34.6s15.52,34.6,34.6,34.6
		s34.6-15.52,34.6-34.6S53.68,0,34.6,0 M34.6,65.2C17.73,65.2,4,51.47,4,34.6S17.73,4,34.6,4s30.6,13.73,30.6,30.6
		S51.47,65.2,34.6,65.2"/>
	<linearGradient id="SVGID_4_" gradientUnits="userSpaceOnUse" x1="38.2228" y1="0.8779" x2="42.0036" y2="70.2321">
		<stop  offset="0" style="stop-color:#32A457"/>
		<stop  offset="1" style="stop-color:#267D42"/>
	</linearGradient>
	<path style="clip-path:url(#SVGID_2_);fill:url(#SVGID_4_);" d="M47.7,45.99L36.77,35.06V19.31c0-1.16-0.94-2.11-2.1-2.11
		s-2.1,0.95-2.1,2.11l0.01,16.52c-0.03,0.6,0.18,1.16,0.6,1.58l11.55,11.55c0.4,0.4,0.93,0.62,1.49,0.62c0.56,0,1.08-0.22,1.48-0.62
		c0.4-0.4,0.62-0.93,0.62-1.49C48.32,46.91,48.1,46.38,47.7,45.99"/>
</g>
</svg>
