<?xml version="1.0" encoding="iso-8859-1"?>
<!-- Generator: Adobe Illustrator 17.1.0, SVG Export Plug-In . SVG Version: 6.00 Build 0)  -->
<!DOCTYPE svg PUBLIC "-//W3C//DTD SVG 1.1//EN" "http://www.w3.org/Graphics/SVG/1.1/DTD/svg11.dtd">
<svg version="1.1" id="Layer_1" xmlns="http://www.w3.org/2000/svg" xmlns:xlink="http://www.w3.org/1999/xlink" x="0px" y="0px"
	 viewBox="0 0 342.97 361.49" style="enable-background:new 0 0 342.97 361.49;" xml:space="preserve">
<g>
	<defs>
		<rect id="SVGID_1_" width="342.97" height="361.49"/>
	</defs>
	<clipPath id="SVGID_2_">
		<use xlink:href="#SVGID_1_"  style="overflow:visible;"/>
	</clipPath>
	<linearGradient id="SVGID_3_" gradientUnits="userSpaceOnUse" x1="0" y1="109.965" x2="220.38" y2="109.965">
		<stop  offset="0" style="stop-color:#32A456"/>
		<stop  offset="1" style="stop-color:#287E41"/>
	</linearGradient>
	<path style="clip-path:url(#SVGID_2_);fill:url(#SVGID_3_);" d="M154.2,35.36l-10.25-2.22V0h-22v33.14l-10.25,2.22
		c-38.12,8.26-68.08,38.22-76.34,76.35l-2.22,10.24H0v22h33.14l2.22,10.25c6.05,27.94,24.03,51.85,48.53,65.73v-7.73l11.83-11.83
		c-8.61-4.77-16.32-11.18-22.6-18.91c-11.11-13.67-17.23-30.9-17.23-48.51c0-42.49,34.57-77.06,77.06-77.06
		c17.61,0,34.84,6.12,48.51,17.23c7.72,6.28,14.14,13.98,18.91,22.6l11-11.01h9.01C206.59,59.78,182.49,41.49,154.2,35.36"/>
	<linearGradient id="SVGID_4_" gradientUnits="userSpaceOnUse" x1="121.89" y1="234.905" x2="342.97" y2="234.905">
		<stop  offset="0" style="stop-color:#32A456"/>
		<stop  offset="1" style="stop-color:#287E41"/>
	</linearGradient>
	<path style="clip-path:url(#SVGID_2_);fill:url(#SVGID_4_);" d="M299.05,108.32l0.01,14.35l-71.94,0.03l-16.5,16.51
		c-2.74,38.52-33.62,69.4-72.15,72.14l-16.58,16.58v133.56h22V233.5l10.24-2.22c38.1-8.28,68.09-38.24,76.4-76.34l2.23-10.22
		l66.32-0.05l0.01,14.35l43.88-25.38L299.05,108.32z"/>
</g>
</svg>
