<?xml version="1.0" encoding="iso-8859-1"?>
<!-- Generator: Adobe Illustrator 17.1.0, SVG Export Plug-In . SVG Version: 6.00 Build 0)  -->
<!DOCTYPE svg PUBLIC "-//W3C//DTD SVG 1.1//EN" "http://www.w3.org/Graphics/SVG/1.1/DTD/svg11.dtd">
<svg version="1.1" id="Capa_1" xmlns="http://www.w3.org/2000/svg" xmlns:xlink="http://www.w3.org/1999/xlink" x="0px" y="0px"
	 viewBox="-49 141 512 512" style="enable-background:new -49 141 512 512;" xml:space="preserve">
<linearGradient id="SVGID_1_" gradientUnits="userSpaceOnUse" x1="205.403" y1="140.485" x2="208.603" y2="652.4751">
	<stop  offset="0" style="stop-color:#32A457"/>
	<stop  offset="1" style="stop-color:#267D42"/>
</linearGradient>
<path style="fill:url(#SVGID_1_);" d="M206,141C65.06,141-49,255.05-49,396c0,139.895,113.025,257,255,257
	c140.644,0,257-115.914,257-257C463,253.87,345.743,141,206,141z M206,623.2C81.935,623.2-19.2,521.168-19.2,396
	c0-124.065,101.135-225.2,225.2-225.2c125.168,0,227.2,101.135,227.2,225.2C433.2,521.168,331.168,623.2,206,623.2z"/>
<linearGradient id="SVGID_2_" gradientUnits="userSpaceOnUse" x1="191.3456" y1="145.6034" x2="223.0019" y2="652.1035">
	<stop  offset="0" style="stop-color:#32A457"/>
	<stop  offset="1" style="stop-color:#267D42"/>
</linearGradient>
<path style="fill:url(#SVGID_2_);" d="M206,231c-90.981,0-165,74.019-165,165c0,91.323,73.867,167,165,167
	c36.874,0,74.175-12.393,102.339-34.001c6.573-5.043,7.813-14.459,2.77-21.032s-14.46-7.813-21.032-2.77
	C267.048,522.866,236.403,533.2,206,533.2c-74.439,0-135-61.658-135-137.2c0-74.439,60.561-135.2,135-135.2
	c75.542,0,137,60.761,137,135.2v15c0,16.542-13.458,30-30,30s-30-13.458-30-30c0-7.43,0-67.164,0-75c0-8.284-6.716-15-15-15
	s-15,6.716-15,15v0.951C239.454,326.622,223.068,321,206,321c-41.355,0-75,33.645-75,75s33.645,75,75,75
	c22.423,0,43.059-9.622,57.735-25.812C274.583,460.772,292.615,471,313,471c33.084,0,60-26.916,60-60v-15
	C373,304.746,297.21,231,206,231z M206,441.2c-24.813,0-45-20.387-45-45.2c0-24.813,20.187-45.2,45-45.2c25.477,0,47,20.807,47,45.2
	C253,420.393,231.477,441.2,206,441.2z"/>
</svg>
