<?xml version="1.0" encoding="iso-8859-1"?>
<!-- Generator: Adobe Illustrator 17.1.0, SVG Export Plug-In . SVG Version: 6.00 Build 0)  -->
<!DOCTYPE svg PUBLIC "-//W3C//DTD SVG 1.1//EN" "http://www.w3.org/Graphics/SVG/1.1/DTD/svg11.dtd">
<svg version="1.1" id="Layer_1" xmlns="http://www.w3.org/2000/svg" xmlns:xlink="http://www.w3.org/1999/xlink" x="0px" y="0px"
	 viewBox="0 0 24.599 24.59" style="enable-background:new 0 0 24.599 24.59;" xml:space="preserve">
<g>
	<defs>
		<rect id="SVGID_1_" y="0" width="24.599" height="24.59"/>
	</defs>
	<clipPath id="SVGID_2_">
		<use xlink:href="#SVGID_1_"  style="overflow:visible;"/>
	</clipPath>
	<linearGradient id="SVGID_3_" gradientUnits="userSpaceOnUse" x1="12.2088" y1="0.2428" x2="12.3909" y2="24.8415">
		<stop  offset="0" style="stop-color:#32A456"/>
		<stop  offset="1" style="stop-color:#287E41"/>
	</linearGradient>
	<path style="clip-path:url(#SVGID_2_);fill-rule:evenodd;clip-rule:evenodd;fill:url(#SVGID_3_);" d="M22.689,15.97l-4.14-2.13
		c-0.82-0.42-1.92-0.27-2.61,0.36l-0.48,0.44c-0.62,0.57-1.58,0.7-2.34,0.31c-1.5-0.77-2.71-1.98-3.49-3.48
		c-0.39-0.76-0.27-1.7,0.32-2.34l0.44-0.48c0.4-0.43,0.61-0.98,0.61-1.56c0-0.36-0.09-0.72-0.26-1.05L8.609,1.9
		C8.009,0.73,6.819,0,5.499,0c-0.78,0-1.51,0.25-2.12,0.72l-1.27,0.96c-1.8,1.38-2.55,3.76-1.85,5.93
		c2.51,7.73,8.58,13.97,16.26,16.68c1.92,0.69,4.19,0.16,5.62-1.29l1.45-1.46c0.65-0.66,1.01-1.53,1.01-2.45
		C24.599,17.77,23.869,16.58,22.689,15.97 M22.589,20.56l-1.44,1.46c-0.75,0.76-1.81,1.18-2.87,1.18c-0.44,0-0.88-0.08-1.29-0.22
		c-7.27-2.58-13.02-8.48-15.4-15.8c-0.52-1.61,0.03-3.37,1.38-4.39l1.26-0.96c0.37-0.28,0.81-0.43,1.27-0.43
		c0.79,0,1.5,0.44,1.87,1.14l2.13,4.15c0.06,0.11,0.1,0.25,0.1,0.4c0,0.23-0.09,0.45-0.24,0.61l-0.44,0.49
		c-0.98,1.06-1.19,2.63-0.53,3.92c0.91,1.76,2.32,3.17,4.09,4.09c1.26,0.65,2.88,0.43,3.93-0.53l0.48-0.44
		c0.22-0.21,0.65-0.33,1.02-0.14l4.15,2.12c0.7,0.37,1.14,1.08,1.14,1.88C23.199,19.64,22.979,20.17,22.589,20.56"/>
</g>
</svg>
