<?xml version="1.0" encoding="iso-8859-1"?>
<!-- Generator: Adobe Illustrator 22.1.0, SVG Export Plug-In . SVG Version: 6.00 Build 0)  -->
<svg version="1.1" id="Layer_1" xmlns="http://www.w3.org/2000/svg" xmlns:xlink="http://www.w3.org/1999/xlink" x="0px" y="0px"
	 viewBox="-101 192.212 408.788 408.788" style="enable-background:new -101 192.212 408.788 408.788;" xml:space="preserve">
<path style="fill:#475993;" d="M252.701,192.212H-45.913c-30.422,0-55.085,24.662-55.085,55.085v298.616
	c0,30.423,24.662,55.085,55.085,55.085h147.275l0.251-146.078H63.662c-4.932,0-8.935-3.988-8.954-8.92l-0.182-47.087
	c-0.019-4.959,3.996-8.989,8.955-8.989h37.882v-45.498c0-52.8,32.247-81.55,79.348-81.55h38.65c4.945,0,8.955,4.009,8.955,8.955
	v39.704c0,4.944-4.007,8.952-8.95,8.955l-23.719,0.011c-25.615,0-30.575,12.172-30.575,30.035v39.389h56.285
	c5.363,0,9.524,4.683,8.892,10.009l-5.581,47.087c-0.534,4.506-4.355,7.901-8.892,7.901h-50.453L165.072,601h87.631
	c30.422,0,55.084-24.662,55.084-55.084V247.297C307.786,216.874,283.124,192.212,252.701,192.212z"/>
</svg>
