<?xml version="1.0" encoding="iso-8859-1"?>
<!-- Generator: Adobe Illustrator 17.1.0, SVG Export Plug-In . SVG Version: 6.00 Build 0)  -->
<!DOCTYPE svg PUBLIC "-//W3C//DTD SVG 1.1//EN" "http://www.w3.org/Graphics/SVG/1.1/DTD/svg11.dtd">
<svg version="1.1" id="Layer_1" xmlns="http://www.w3.org/2000/svg" xmlns:xlink="http://www.w3.org/1999/xlink" x="0px" y="0px"
	 viewBox="0 0 74.521 72.262" style="enable-background:new 0 0 74.521 72.262;" xml:space="preserve">
<g>
	<defs>
		<rect id="SVGID_1_" y="0" width="74.521" height="72.262"/>
	</defs>
	<clipPath id="SVGID_2_">
		<use xlink:href="#SVGID_1_"  style="overflow:visible;"/>
	</clipPath>
	<path style="clip-path:url(#SVGID_2_);" d="M13.694,57.185c0.094-0.108,10.329-10.787,27.942-2.929
		c0.705,0.296,1.518-0.014,1.831-0.708c0.313-0.706,0-1.532-0.705-1.831c-19.407-8.658-30.996,3.446-31.104,3.568
		c-0.528,0.569-0.49,1.452,0.066,1.97c0.275,0.243,0.612,0.378,0.952,0.378C13.041,57.633,13.423,57.484,13.694,57.185"/>
	<linearGradient id="SVGID_3_" gradientUnits="userSpaceOnUse" x1="11.2836" y1="53.1154" x2="43.5883" y2="53.1154">
		<stop  offset="0" style="stop-color:#32A456"/>
		<stop  offset="1" style="stop-color:#287E41"/>
	</linearGradient>
	<linearGradient id="SVGID_4_" gradientUnits="userSpaceOnUse" x1="10.7836" y1="53.1154" x2="44.0883" y2="53.1154">
		<stop  offset="0" style="stop-color:#32A456"/>
		<stop  offset="1" style="stop-color:#287E41"/>
	</linearGradient>
	<path style="clip-path:url(#SVGID_2_);fill:url(#SVGID_3_);stroke:url(#SVGID_4_);stroke-miterlimit:10;" d="M13.694,57.185
		c0.094-0.108,10.329-10.787,27.942-2.929c0.705,0.296,1.518-0.014,1.831-0.708c0.313-0.706,0-1.532-0.705-1.831
		c-19.407-8.658-30.996,3.446-31.104,3.568c-0.528,0.569-0.49,1.452,0.066,1.97c0.275,0.243,0.612,0.378,0.952,0.378
		C13.041,57.633,13.423,57.484,13.694,57.185z"/>
	<path style="clip-path:url(#SVGID_2_);" d="M65.315,20.506l-0.42-0.695c-3.256-5.305-9.321-15.157-14.439-18.576
		c-3.109-2.063-16.828,0.65-21.685,2.849c-1.195,0.542-2.578,1.331-2.755,2.606l-0.121,0.84c-0.313,2.106-0.626,4.263,1.233,5.309
		c1.074,0.608,3.259,0.92,5.103,1.07c-1.25,1.737-1.059,2.539-0.99,2.862c0.15,0.612,0.598,1.088,1.206,1.293
		c1.956,0.649,8.605,1.396,14.101,0.729c-0.962,3.422-2.932,12.08-0.813,19.803c-5.85-1.807-11.985,0.514-14.577,1.737
		c-9.377-15.797-29.596-7.452-29.815-7.369c-0.705,0.299-1.031,1.112-0.733,1.817c0.299,0.719,1.116,1.046,1.821,0.747
		c0.771-0.327,19.079-7.845,26.938,7.299c0.174,0.34,0.472,0.584,0.841,0.695c0.364,0.107,0.76,0.052,1.083-0.136
		c0.084-0.042,8.05-4.575,14.588-1.848c0.504,0.219,0.98,0.476,1.452,0.761c0.028,0.028,0.056,0.042,0.084,0.055
		c2.89,1.831,5.006,5.17,6.27,9.961c0.174,0.625,0.733,1.031,1.341,1.031c0.122,0,0.247-0.013,0.355-0.041
		c0.747-0.205,1.195-0.963,0.99-1.696c-1.411-5.332-3.815-9.119-7.139-11.36c-3.909-9.092,0.298-21.765,0.395-22.026
		c1.901-0.5,3.433-1.261,4.232-2.4c0.462-0.625,0.299-1.494-0.309-1.942c-0.625-0.434-1.494-0.285-1.942,0.326
		c-1.737,2.415-12.538,2.512-17.235,1.494c0.406-0.583,1.084-1.386,1.737-2.063c0.393-0.393,0.514-0.976,0.299-1.494
		c-0.205-0.528-0.705-0.869-1.261-0.869c-2.568-0.052-5.837-0.378-6.639-0.84c-0.188-0.285,0-1.616,0.125-2.484l0.093-0.664
		c2.023-2.064,18.09-5.048,20.181-3.731c4.628,3.068,10.475,12.593,13.612,17.707l0.434,0.695
		c12.048,19.566,7.369,29.908,7.313,30.002c-0.177,0.369-0.191,0.789-0.028,1.154c0.897,2.105,0.99,3.936,0.271,5.43
		c-1.303,2.685-4.815,3.665-5.034,3.745c-31.673,13.49-46.073,2.157-46.208,2.049c-0.514-0.434-1.261-0.434-1.776-0.014
		c-6.027,4.941-13.069,2.891-13.368,2.797c-0.733-0.219-1.508,0.202-1.737,0.935c-0.219,0.733,0.191,1.507,0.924,1.723
		c0.337,0.111,8.088,2.404,15.102-2.644c2.171,1.438,8.213,4.628,18.579,4.628c7.49,0,17.221-1.671,29.395-6.855
		c0.177-0.055,4.749-1.303,6.621-5.145c1.018-2.116,1.032-4.53,0.014-7.191C73.986,49.938,76.741,39.044,65.315,20.506"/>
	<linearGradient id="SVGID_5_" gradientUnits="userSpaceOnUse" x1="0.5" y1="36.1313" x2="74.0212" y2="36.1313">
		<stop  offset="0" style="stop-color:#32A456"/>
		<stop  offset="1" style="stop-color:#287E41"/>
	</linearGradient>
	<linearGradient id="SVGID_6_" gradientUnits="userSpaceOnUse" x1="-0.6763" y1="39.8873" x2="73.5329" y2="33.3948">
		<stop  offset="0" style="stop-color:#32A456"/>
		<stop  offset="1" style="stop-color:#287E41"/>
	</linearGradient>
	<path style="clip-path:url(#SVGID_2_);fill:url(#SVGID_5_);stroke:url(#SVGID_6_);stroke-miterlimit:10;" d="M65.315,20.506
		l-0.42-0.695c-3.256-5.305-9.321-15.157-14.439-18.576c-3.109-2.063-16.828,0.65-21.685,2.849
		c-1.195,0.542-2.578,1.331-2.755,2.606l-0.121,0.84c-0.313,2.106-0.626,4.263,1.233,5.309c1.074,0.608,3.259,0.92,5.103,1.07
		c-1.25,1.737-1.059,2.539-0.99,2.862c0.15,0.612,0.598,1.088,1.206,1.293c1.956,0.649,8.605,1.396,14.101,0.729
		c-0.962,3.422-2.932,12.08-0.813,19.803c-5.85-1.807-11.985,0.514-14.577,1.737c-9.377-15.797-29.596-7.452-29.815-7.369
		c-0.705,0.299-1.031,1.112-0.733,1.817c0.299,0.719,1.116,1.046,1.821,0.747c0.771-0.327,19.079-7.845,26.938,7.299
		c0.174,0.34,0.472,0.584,0.841,0.695c0.364,0.107,0.76,0.052,1.083-0.136c0.084-0.042,8.05-4.575,14.588-1.848
		c0.504,0.219,0.98,0.476,1.452,0.761c0.028,0.028,0.056,0.042,0.084,0.055c2.89,1.831,5.006,5.17,6.27,9.961
		c0.174,0.625,0.733,1.031,1.341,1.031c0.122,0,0.247-0.013,0.355-0.041c0.747-0.205,1.195-0.963,0.99-1.696
		c-1.411-5.332-3.815-9.119-7.139-11.36c-3.909-9.092,0.298-21.765,0.395-22.026c1.901-0.5,3.433-1.261,4.232-2.4
		c0.462-0.625,0.299-1.494-0.309-1.942c-0.625-0.434-1.494-0.285-1.942,0.326c-1.737,2.415-12.538,2.512-17.235,1.494
		c0.406-0.583,1.084-1.386,1.737-2.063c0.393-0.393,0.514-0.976,0.299-1.494c-0.205-0.528-0.705-0.869-1.261-0.869
		c-2.568-0.052-5.837-0.378-6.639-0.84c-0.188-0.285,0-1.616,0.125-2.484l0.093-0.664c2.023-2.064,18.09-5.048,20.181-3.731
		c4.628,3.068,10.475,12.593,13.612,17.707l0.434,0.695c12.048,19.566,7.369,29.908,7.313,30.002
		c-0.177,0.369-0.191,0.789-0.028,1.154c0.897,2.105,0.99,3.936,0.271,5.43c-1.303,2.685-4.815,3.665-5.034,3.745
		c-31.673,13.49-46.073,2.157-46.208,2.049c-0.514-0.434-1.261-0.434-1.776-0.014c-6.027,4.941-13.069,2.891-13.368,2.797
		c-0.733-0.219-1.508,0.202-1.737,0.935c-0.219,0.733,0.191,1.507,0.924,1.723c0.337,0.111,8.088,2.404,15.102-2.644
		c2.171,1.438,8.213,4.628,18.579,4.628c7.49,0,17.221-1.671,29.395-6.855c0.177-0.055,4.749-1.303,6.621-5.145
		c1.018-2.116,1.032-4.53,0.014-7.191C73.986,49.938,76.741,39.044,65.315,20.506z"/>
</g>
</svg>
