<?xml version="1.0" encoding="iso-8859-1"?>
<!-- Generator: Adobe Illustrator 22.1.0, SVG Export Plug-In . SVG Version: 6.00 Build 0)  -->
<svg version="1.1" id="&#x421;&#x43B;&#x43E;&#x439;_1"
	 xmlns="http://www.w3.org/2000/svg" xmlns:xlink="http://www.w3.org/1999/xlink" x="0px" y="0px" viewBox="0 0 227.861 236.93"
	 style="enable-background:new 0 0 227.861 236.93;" xml:space="preserve">
<style type="text/css">
	.st0{fill:url(#SVGID_1_);}
</style>
<g>
	<g>
		<g>
			<linearGradient id="SVGID_1_" gradientUnits="userSpaceOnUse" x1="113.9303" y1="0" x2="113.9303" y2="236.93">
				<stop  offset="0" style="stop-color:#32A456"/>
				<stop  offset="1" style="stop-color:#297E41"/>
			</linearGradient>
			<path class="st0" d="M221.79,148.21c-3.9-3.91-9.14-6.02-14.58-6.02c-1.49,0-3,0.16-4.5,0.48l-5.11,1.1l2.35-4.67
				c6.72-13.42,10.14-27.87,10.14-42.94C210.09,43.14,166.95,0,113.93,0S17.77,43.14,17.77,96.16c0,20,6.11,39.19,17.67,55.5
				l2.36,3.32l-4.03,0.59c-9,1.34-17.29,5.81-23.33,12.58C3.71,175.71,0,185.45,0,195.58v23.04c0,2.33,1.74,4.33,4.05,4.65
				l89.67,12.51c5.47,0.76,11.03,1.15,16.51,1.15c19.12,0,37.48-4.52,54.56-13.45c5.64-2.94,11.11-6.38,16.24-10.22
				c11.29-8.44,22.12-17.68,32.2-27.46l8.34-8.1c4.01-3.89,6.25-9.11,6.29-14.7C227.9,157.41,225.75,152.16,221.79,148.21z
				 M27.17,96.16c0-47.84,38.92-86.76,86.76-86.76c47.84,0,86.75,38.92,86.75,86.76c0,20.83-7.52,40.98-21.18,56.75
				c-13.52,15.6-32.12,25.9-52.38,29.01l-0.19,0.03H114l19.95-8.73c0.12-0.05,0.25-0.11,0.37-0.18
				c10.91-5.93,15.29-19.37,9.97-30.61c-0.75-1.57-1.7-3.09-2.82-4.5l-0.99-1.24l0.7-1.42c2.09-4.21,3.14-8.72,3.14-13.42
				c0-14.09-9.98-26.56-23.74-29.64l-1.95-0.44v-42.1l3.48,1.47c7.78,3.3,12.81,10.89,12.81,19.33c0,2.59,2.11,4.7,4.7,4.7
				c2.59,0,4.7-2.11,4.7-4.7c0-14.09-9.98-26.56-23.74-29.65l-1.95-0.44v-8.77c0-2.59-2.11-4.7-4.7-4.7c-2.59,0-4.7,2.11-4.7,4.7
				v8.77l-1.96,0.44c-13.75,3.09-23.73,15.56-23.73,29.65c0,14.09,9.98,26.56,23.73,29.65l1.96,0.44v32.65l-9.24,4.42l-1.25-1.32
				c-3.74-3.92-5.8-9.06-5.8-14.46c0-2.59-2.11-4.7-4.7-4.7c-2.59,0-4.7,2.11-4.7,4.7c0,6.37,1.96,12.48,5.68,17.67l1.74,2.42
				l-27.67,13.23l-12.92-0.01l-0.75-0.82C35.15,138.35,27.17,117.69,27.17,96.16z M134.92,121.85c0,2.35-0.39,4.66-1.16,6.88
				l-0.83,2.39l-2.47-0.89c-0.07-0.02-0.14-0.05-0.21-0.07c-2.9-0.92-5.88-1.26-8.93-1.02l-2.69,0.2v-28.3l3.48,1.48
				C129.89,105.82,134.92,113.41,134.92,121.85z M109.23,49.67v41.61l-3.48-1.48c-7.78-3.3-12.81-10.89-12.81-19.33
				s5.03-16.03,12.81-19.33L109.23,49.67z M215.02,170.96l-8.34,8.09c-9.79,9.5-20.32,18.48-31.28,26.67
				c-4.76,3.56-9.79,6.74-14.96,9.43c-15.67,8.19-32.8,12.38-50.23,12.38c-5.05,0-10.12-0.35-15.19-1.06L9.4,214.53v-18.95
				c0-7.82,2.86-15.34,8.06-21.17c5.59-6.27,13.6-9.86,21.99-9.86l24.9,0.02c0.7,0,1.4-0.16,2.04-0.46l49.57-23.7
				c0.07-0.03,0.16-0.08,0.25-0.13c3.46-1.95,7.41-2.36,11.16-1.17s6.74,3.8,8.42,7.36c3.12,6.56,0.62,14.54-5.68,18.15l-0.24,0.12
				l-40.23,17.6c-2.03,0.89-3.17,3.1-2.72,5.26c0.46,2.17,2.39,3.74,4.6,3.74h47.78c14.6,0,28.32-5.67,38.64-15.99l21.37-20.63
				c4.4-4.26,11.51-4.2,15.84,0.13c2.16,2.16,3.33,5.03,3.31,8.09C218.44,165.98,217.22,168.83,215.02,170.96z"/>
		</g>
	</g>
</g>
</svg>
