<?xml version="1.0" encoding="iso-8859-1"?>
<!-- Generator: Adobe Illustrator 22.1.0, SVG Export Plug-In . SVG Version: 6.00 Build 0)  -->
<svg version="1.1" id="Capa_1" xmlns="http://www.w3.org/2000/svg" xmlns:xlink="http://www.w3.org/1999/xlink" x="0px" y="0px"
	 viewBox="86 -129.301 455.731 455.731" style="enable-background:new 86 -129.301 455.731 455.731;" xml:space="preserve">
<style type="text/css">
	.st0{fill:#61A8DE;}
	.st1{fill:#FFFFFF;}
</style>
<path class="st0" d="M313.865-129.301L313.865-129.301c125.847,0,227.866,102.019,227.866,227.865v0
	c0,125.847-102.019,227.865-227.865,227.865h0C188.019,326.43,86,224.411,86,98.565v0C86-27.282,188.019-129.301,313.865-129.301z"
	/>
<path class="st1" d="M419.055-3.97L168.421,93.7c-8.118,3.164-7.626,14.813,0.73,17.281l63.689,18.807l23.769,75.421
	c2.483,7.878,12.466,10.266,18.245,4.365l32.929-33.622l64.609,47.425c7.907,5.804,19.167,1.492,21.175-8.108l42.791-204.584
	C438.453,0.662,428.594-7.687,419.055-3.97z M387.632,41.433L271.214,144.381c-1.16,1.026-1.899,2.447-2.072,3.986l-4.482,39.844
	c-0.146,1.299-1.965,1.471-2.353,0.223l-18.441-59.422c-0.845-2.721,0.257-5.668,2.677-7.169l137.478-85.265
	C387.182,34.616,390.419,38.969,387.632,41.433z"/>
</svg>
