<?xml version="1.0" encoding="iso-8859-1"?>
<!-- Generator: Adobe Illustrator 22.1.0, SVG Export Plug-In . SVG Version: 6.00 Build 0)  -->
<svg version="1.1" id="&#x421;&#x43B;&#x43E;&#x439;_1"
	 xmlns="http://www.w3.org/2000/svg" xmlns:xlink="http://www.w3.org/1999/xlink" x="0px" y="0px" viewBox="0 0 47.961 45.885"
	 style="enable-background:new 0 0 47.961 45.885;" xml:space="preserve">
<g>
	<linearGradient id="SVGID_1_" gradientUnits="userSpaceOnUse" x1="18.404" y1="9.6013" x2="18.404" y2="16">
		<stop  offset="0" style="stop-color:#32A456"/>
		<stop  offset="1" style="stop-color:#297E41"/>
	</linearGradient>
	<path style="fill:url(#SVGID_1_);" d="M15.438,15.766C15.594,15.922,15.797,16,16.004,16c0.203,0,0.41-0.078,0.566-0.234
		l0.735-0.739c0.347,0.172,0.722,0.266,1.097,0.266c0.379,0,0.754-0.094,1.098-0.266l0.738,0.739C20.395,15.922,20.598,16,20.805,16
		c0.203,0,0.41-0.078,0.562-0.234c0.317-0.313,0.317-0.821,0-1.133l-0.734-0.735c0.344-0.691,0.344-1.503,0-2.199l0.734-0.734
		c0.317-0.313,0.317-0.817,0-1.129c-0.312-0.313-0.816-0.313-1.129,0L19.5,10.57c-0.691-0.34-1.504-0.34-2.195,0l-0.739-0.734
		c-0.312-0.313-0.816-0.313-1.128,0c-0.313,0.312-0.313,0.816,0,1.129l0.734,0.738c-0.34,0.692-0.34,1.504,0,2.195l-0.734,0.739
		C15.125,14.945,15.125,15.453,15.438,15.766L15.438,15.766z M19.039,12.164c0.348,0.352,0.348,0.918,0,1.27
		c-0.351,0.351-0.918,0.351-1.269,0c-0.352-0.352-0.352-0.918,0-1.27c0.175-0.176,0.402-0.262,0.632-0.262
		C18.633,11.902,18.863,11.988,19.039,12.164L19.039,12.164z M19.039,12.164"/>
	<linearGradient id="SVGID_2_" gradientUnits="userSpaceOnUse" x1="31.203" y1="9.6013" x2="31.203" y2="16">
		<stop  offset="0" style="stop-color:#32A456"/>
		<stop  offset="1" style="stop-color:#297E41"/>
	</linearGradient>
	<path style="fill:url(#SVGID_2_);" d="M28.238,15.766C28.395,15.922,28.598,16,28.805,16c0.203,0,0.41-0.078,0.562-0.234
		l0.738-0.739c0.348,0.172,0.719,0.266,1.098,0.266c0.379,0,0.754-0.094,1.098-0.266l0.738,0.739C33.195,15.922,33.398,16,33.602,16
		c0.207,0,0.41-0.078,0.566-0.234c0.312-0.313,0.312-0.821,0-1.133l-0.734-0.735c0.339-0.691,0.339-1.503,0-2.199l0.734-0.734
		c0.312-0.313,0.312-0.817,0-1.129c-0.313-0.313-0.816-0.313-1.129,0l-0.738,0.734c-0.692-0.34-1.504-0.34-2.196,0l-0.738-0.734
		c-0.312-0.313-0.816-0.313-1.129,0c-0.312,0.312-0.312,0.816,0,1.129l0.735,0.738c-0.34,0.692-0.34,1.504,0,2.195l-0.735,0.739
		C27.926,14.945,27.926,15.453,28.238,15.766L28.238,15.766z M31.836,12.164c0.352,0.352,0.352,0.918,0,1.27
		c-0.348,0.351-0.918,0.351-1.266,0c-0.351-0.352-0.351-0.918,0-1.27c0.176-0.176,0.403-0.262,0.633-0.262
		C31.434,11.902,31.664,11.988,31.836,12.164L31.836,12.164z M31.836,12.164"/>
	<linearGradient id="SVGID_3_" gradientUnits="userSpaceOnUse" x1="24.0033" y1="0" x2="24.0033" y2="45.602">
		<stop  offset="0" style="stop-color:#32A456"/>
		<stop  offset="1" style="stop-color:#297E41"/>
	</linearGradient>
	<path style="fill:url(#SVGID_3_);" d="M47.961,24.621c-0.352-3.148-2.879-5.738-6.008-6.156c-0.625-0.086-1.246-0.074-1.855,0.004
		l0.718-7.344c0.45-2.781-0.339-5.605-2.168-7.75C36.824,1.23,34.16,0,31.344,0H16.801c-2.817,0-5.481,1.23-7.305,3.375
		C7.668,5.52,6.879,8.344,7.32,11.063l0.618,7.41c-0.622-0.082-1.25-0.094-1.883-0.008c-3.133,0.418-5.657,3.008-6.008,6.156
		c-0.242,2.16,0.453,4.262,1.906,5.758c2.352,2.434,3.649,5.43,3.649,8.437v0.84c0,1.871,1.46,3.391,3.3,3.52
		c0.352,1.457,1.688,2.426,3.5,2.426c1.805,0,3.133-0.957,3.496-2.403h16.211c0.36,1.446,1.692,2.403,3.493,2.403
		c1.824,0,3.168-0.977,3.511-2.446c1.848-0.226,3.289-1.789,3.289-3.699v-0.641c0-3.007,1.297-6.003,3.653-8.437
		C47.504,28.883,48.199,26.781,47.961,24.621L47.961,24.621z M9.574,18.887l-0.668-8.016c-0.371-2.32,0.285-4.672,1.809-6.461
		c1.519-1.785,3.742-2.812,6.086-2.812h14.543c2.347,0,4.566,1.027,6.086,2.812c1.523,1.789,2.183,4.145,1.8,6.508l-0.781,7.961
		c-0.019,0.008-0.035,0.019-0.054,0.023c-0.133,0.055-0.266,0.118-0.399,0.18c-0.066,0.031-0.133,0.059-0.195,0.094
		c-0.149,0.074-0.289,0.156-0.434,0.238c-0.039,0.027-0.074,0.051-0.113,0.074c-0.156,0.098-0.313,0.203-0.461,0.313
		c-0.004,0.004-0.008,0.008-0.008,0.008c-0.14,0.105-0.281,0.211-0.414,0.324c-0.691,0.605-1.25,1.336-1.652,2.14
		c-0.5,0.766-0.844,1.625-1.004,2.528H14.293c-0.16-0.903-0.504-1.766-1.004-2.528c-0.406-0.804-0.961-1.535-1.652-2.14
		c-0.125-0.11-0.262-0.207-0.395-0.305c-0.008-0.008-0.015-0.015-0.023-0.019c-0.149-0.11-0.297-0.211-0.449-0.309
		c-0.043-0.027-0.086-0.055-0.129-0.078c-0.137-0.086-0.278-0.164-0.418-0.238c-0.071-0.036-0.145-0.071-0.219-0.102
		c-0.125-0.059-0.25-0.121-0.379-0.172C9.609,18.902,9.594,18.895,9.574,18.887L9.574,18.887z M13.551,26.398h20.906
		c1.293,0,2.348,1.055,2.348,2.348v2.375c0,0.484-0.395,0.879-0.883,0.879H12.086c-0.488,0-0.883-0.395-0.883-0.879v-2.375
		C11.203,27.453,12.258,26.398,13.551,26.398L13.551,26.398z M12.402,44c-0.703,0-1.441-0.223-1.793-0.801h3.586
		C13.848,43.777,13.105,44,12.402,44L12.402,44z M35.602,44c-0.704,0-1.442-0.223-1.793-0.801h3.586
		C37.047,43.777,36.309,44,35.602,44L35.602,44z M44.906,29.266c-2.644,2.734-4.101,6.125-4.101,9.55v0.641
		c0,1.18-0.961,2.141-2.145,2.141H9.145c-1.071,0-1.942-0.871-1.942-1.942v-0.84c0-3.425-1.457-6.816-4.101-9.55
		c-1.118-1.153-1.653-2.782-1.465-4.469c0.269-2.43,2.218-4.426,4.629-4.746C6.523,20.016,6.777,20,7.027,20
		c0.586,0,1.153,0.105,1.692,0.285c0.117,0.039,0.23,0.078,0.343,0.121c0.2,0.082,0.395,0.18,0.583,0.285
		c0.105,0.055,0.203,0.118,0.304,0.184c0.188,0.121,0.371,0.254,0.547,0.402c0.547,0.461,1.004,1.028,1.336,1.676
		c0.32,0.629,0.52,1.317,0.578,2.035c-1.617,0.492-2.805,1.981-2.805,3.758v2.375c0,1.367,1.114,2.481,2.481,2.481h23.84
		c1.367,0,2.48-1.114,2.48-2.481v-2.375c0-1.777-1.187-3.266-2.804-3.758c0.054-0.711,0.25-1.398,0.57-2.023
		c0.668-1.313,1.855-2.309,3.258-2.731l0.172-0.05c0.683-0.18,1.406-0.231,2.14-0.133c2.414,0.32,4.36,2.32,4.629,4.746
		C46.555,26.484,46.023,28.113,44.906,29.266L44.906,29.266z M44.906,29.266"/>
</g>
</svg>
