<?xml version="1.0" encoding="iso-8859-1"?>
<!-- Generator: Adobe Illustrator 22.1.0, SVG Export Plug-In . SVG Version: 6.00 Build 0)  -->
<svg version="1.1" id="Layer_1" xmlns="http://www.w3.org/2000/svg" xmlns:xlink="http://www.w3.org/1999/xlink" x="0px" y="0px"
	 viewBox="-23.429 141 460.859 512" style="enable-background:new -23.429 141 460.859 512;" xml:space="preserve">
<style type="text/css">
	.st0{fill:#665CAC;}
	.st1{fill:#523494;}
	.st2{fill:#FFFFFF;}
	.st3{fill:#E5E5E5;}
</style>
<path class="st0" d="M258.207,141H155.794C56.97,141-23.429,221.398-23.429,320.223v76.81c0,69.381,40.014,132.344,102.413,161.961
	v85.537c0,7.427,9.291,11.31,14.569,6.035l74.309-74.31h90.344c98.824,0,179.223-80.398,179.223-179.223v-76.81
	C437.43,221.398,357.03,141,258.207,141z"/>
<path class="st1" d="M104.588,558.993C42.188,529.376,2.175,466.413,2.175,397.033v-76.81C2.175,221.398,82.573,141,181.397,141
	h-25.603C56.97,141-23.429,221.398-23.429,320.223v76.81c0,69.381,40.014,132.344,102.413,161.961v85.537
	c0,7.427,9.291,11.31,14.569,6.035l11.034-11.034V558.993z"/>
<path class="st2" d="M335.85,459.101l-7.673-41.566c-0.635-3.434-3.295-6.135-6.719-6.82l-60.347-12.069
	c-2.802-0.558-5.691,0.317-7.71,2.334l-24.517,24.518c-41.308-18.509-64.234-41.485-84.406-84.566l24.438-24.437
	c2.017-2.018,2.893-4.912,2.334-7.71l-12.069-60.348c-0.685-3.423-3.386-6.085-6.82-6.719l-41.566-7.672
	c-1.138-0.209-2.31-0.187-3.44,0.07c-10.975,2.493-20.989,8.023-28.96,15.996c-13.802,13.802-19.077,33.942-15.253,58.243
	c6.419,40.806,26.411,97.594,63.296,134.627l0.504,0.5c37.004,36.859,93.793,56.853,134.601,63.273
	c5.141,0.81,10.092,1.211,14.84,1.211c17.695,0,32.52-5.582,43.405-16.465c7.971-7.972,13.503-17.986,15.995-28.959
	C336.037,461.411,336.06,460.241,335.85,459.101z"/>
<g>
	<polygon class="st3" points="160.571,324.839 168.916,316.494 168.924,316.485 160.57,324.838 	"/>
	
		<rect x="243.236" y="405.183" transform="matrix(0.7071 -0.7071 0.7071 0.7071 -213.5213 294.8821)" class="st3" width="11.916" height="0.002"/>
	<path class="st3" d="M292.474,491.871c-4.748,0-9.699-0.401-14.84-1.211c-40.807-6.42-97.596-26.414-134.601-63.273l-0.504-0.5
		c-36.885-37.033-56.877-93.821-63.296-134.627c-3.089-19.633-0.233-36.548,8.256-49.601c-3.251,2.169-6.302,4.657-9.097,7.452
		c-13.802,13.802-19.077,33.942-15.253,58.243c6.419,40.806,26.411,97.594,63.296,134.627l0.504,0.5
		c37.004,36.859,93.793,56.853,134.601,63.273c5.141,0.81,10.092,1.211,14.84,1.211c17.695,0,32.52-5.581,43.405-16.465
		c2.794-2.795,5.282-5.845,7.451-9.096C317.598,488.672,305.858,491.871,292.474,491.871z"/>
</g>
<g>
	<path class="st2" d="M224.069,286.085c-4.713,0-8.534,3.821-8.534,8.534s3.821,8.534,8.534,8.534
		c18.824,0,34.138,15.314,34.138,34.138c0,4.65,3.884,8.534,8.534,8.534c4.65,0,8.534-3.884,8.534-8.534
		C275.276,309.055,252.305,286.085,224.069,286.085z"/>
	<path class="st2" d="M224.069,251.947c-3.157,0-6.343,0.175-9.471,0.52c-4.685,0.517-8.064,4.734-7.547,9.42
		c0.517,4.685,4.743,8.056,9.42,7.547c2.508-0.277,5.064-0.418,7.598-0.418c37.647,0,68.275,30.628,68.275,68.275
		c0,2.535-0.141,5.091-0.418,7.599c-0.51,4.621,2.924,8.911,7.547,9.42c4.622,0.509,8.909-2.924,9.42-7.547
		c0.345-3.128,0.52-6.314,0.52-9.472C309.414,290.233,271.128,251.947,224.069,251.947z"/>
	<path class="st2" d="M224.069,217.81c-3.05,0-6.139,0.116-9.179,0.347c-4.7,0.356-8.222,4.456-7.866,9.155
		c0.355,4.7,4.469,8.222,9.155,7.866c2.613-0.199,5.268-0.299,7.89-0.299c56.471,0,102.413,45.942,102.413,102.413
		c0,7.99-0.922,15.944-2.74,23.64c-1.043,4.41,1.673,8.994,6.046,10.192c4.601,1.26,9.469-1.625,10.565-6.266
		c2.122-8.981,3.198-18.255,3.198-27.566C343.551,271.409,289.952,217.81,224.069,217.81z"/>
</g>
</svg>
