<?xml version="1.0" encoding="iso-8859-1"?>
<!-- Generator: Adobe Illustrator 22.1.0, SVG Export Plug-In . SVG Version: 6.00 Build 0)  -->
<svg version="1.1" id="Capa_1" xmlns="http://www.w3.org/2000/svg" xmlns:xlink="http://www.w3.org/1999/xlink" x="0px" y="0px"
	 viewBox="-49 141 512 512" style="enable-background:new -49 141 512 512;" xml:space="preserve">
<style type="text/css">
	.st0{fill:#4CAF50;}
	.st1{fill:#FAFAFA;}
</style>
<path class="st0" d="M207,141C65.615,141.03-48.976,255.669-48.946,397.054c0.01,48.957,14.059,96.884,40.479,138.1l-39.829,103.339
	c-2.121,5.496,0.615,11.671,6.111,13.792c1.229,0.474,2.534,0.717,3.851,0.715c1.222,0.006,2.435-0.203,3.584-0.619l106.667-38.08
	c120.012,74.745,277.894,38.048,352.638-81.965c74.745-120.012,38.048-277.894-81.965-352.638
	C301.908,154.361,254.928,140.952,207,141z"/>
<path class="st1" d="M329.048,440.755c0,0-26.133-12.8-42.496-21.333c-18.517-9.536-40.277,8.32-50.517,18.475
	c-15.937-6.122-30.493-15.362-42.816-27.179c-11.819-12.321-21.059-26.877-27.179-42.816c10.155-10.261,27.968-32,18.475-50.517
	c-8.427-16.384-21.333-42.496-21.333-42.517c-1.811-3.594-5.49-5.863-9.515-5.867h-21.333c-31.068,5.366-53.657,32.474-53.333,64
	c0,33.493,40.085,97.835,67.115,124.885S237.485,525,271,525c31.526,0.324,58.634-22.266,64-53.333v-21.333
	C335.004,446.267,332.696,442.552,329.048,440.755z"/>
</svg>
