<?xml version="1.0" encoding="iso-8859-1"?>
<!-- Generator: Adobe Illustrator 22.1.0, SVG Export Plug-In . SVG Version: 6.00 Build 0)  -->
<svg version="1.1" id="Capa_1" xmlns="http://www.w3.org/2000/svg" xmlns:xlink="http://www.w3.org/1999/xlink" x="0px" y="0px"
	 viewBox="-49 141 512 512" style="enable-background:new -49 141 512 512;" xml:space="preserve">
<g>
	<linearGradient id="SVGID_1_" gradientUnits="userSpaceOnUse" x1="207" y1="141" x2="207" y2="653">
		<stop  offset="0" style="stop-color:#32A457"/>
		<stop  offset="1" style="stop-color:#267D42"/>
	</linearGradient>
	<path style="fill:url(#SVGID_1_);" d="M388.019,215.981C339.667,167.628,275.38,141,207,141S74.333,167.628,25.981,215.981
		C-22.372,264.333-49,328.62-49,397s26.628,132.667,74.981,181.019C74.333,626.372,138.62,653,207,653
		s132.667-26.628,181.019-74.981C436.372,529.667,463,465.38,463,397S436.372,264.333,388.019,215.981z M207,633
		C76.869,633-29,527.131-29,397S76.869,161,207,161s236,105.869,236,236S337.131,633,207,633z"/>
	<linearGradient id="SVGID_2_" gradientUnits="userSpaceOnUse" x1="207" y1="181" x2="207" y2="613">
		<stop  offset="0" style="stop-color:#32A457"/>
		<stop  offset="1" style="stop-color:#267D42"/>
	</linearGradient>
	<path style="fill:url(#SVGID_2_);" d="M359.735,244.265C318.938,203.468,264.696,181,207,181S95.062,203.468,54.265,244.265
		S-9,339.304-9,397s22.468,111.938,63.265,152.735S149.304,613,207,613s111.938-22.468,152.735-63.265S423,454.696,423,397
		S400.532,285.062,359.735,244.265z M217,592.747V543c0-5.523-4.477-10-10-10s-10,4.477-10,10v49.747
		C96.866,587.69,16.31,507.134,11.253,407H61c5.523,0,10-4.477,10-10s-4.477-10-10-10H11.253
		C16.31,286.866,96.866,206.31,197,201.253V251c0,5.523,4.477,10,10,10c5.523,0,10-4.477,10-10v-49.747
		C317.134,206.31,397.69,286.866,402.747,387H353c-5.523,0-10,4.477-10,10s4.477,10,10,10h49.747
		C397.69,507.134,317.134,587.69,217,592.747z"/>
	<linearGradient id="SVGID_3_" gradientUnits="userSpaceOnUse" x1="175.4347" y1="289.0378" x2="175.4347" y2="427">
		<stop  offset="0" style="stop-color:#32A457"/>
		<stop  offset="1" style="stop-color:#267D42"/>
	</linearGradient>
	<path style="fill:url(#SVGID_3_);" d="M241.939,352.225c-2.617-0.002-5.233,0.919-7.069,2.765l-14.942,14.943
		C216.01,368.054,211.626,367,207,367s-9.011,1.054-12.927,2.932c0,0-77.918-77.918-78.003-78.003
		c-3.859-3.859-10.289-3.851-14.14,0c-3.9,3.9-3.9,10.24,0,14.14l78.003,78.003C178.054,387.989,177,392.374,177,397
		c0,16.542,13.458,30,30,30s30-13.458,30-30c0-4.625-1.054-9.008-2.931-12.924c0,0,14.899-14.895,14.94-14.936
		c3.818-3.817,3.796-10.353,0.001-14.149C247.17,353.149,244.553,352.227,241.939,352.225z M207,407c-5.514,0-10-4.486-10-10
		s4.486-10,10-10s10,4.486,10,10S212.514,407,207,407z"/>
	<linearGradient id="SVGID_4_" gradientUnits="userSpaceOnUse" x1="270" y1="324" x2="270" y2="344">
		<stop  offset="0" style="stop-color:#32A457"/>
		<stop  offset="1" style="stop-color:#267D42"/>
	</linearGradient>
	<circle style="fill:url(#SVGID_4_);" cx="270" cy="334" r="10"/>
</g>
</svg>
