<?xml version="1.0" encoding="iso-8859-1"?>
<!-- Generator: Adobe Illustrator 22.1.0, SVG Export Plug-In . SVG Version: 6.00 Build 0)  -->
<svg version="1.1" id="Capa_1" xmlns="http://www.w3.org/2000/svg" xmlns:xlink="http://www.w3.org/1999/xlink" x="0px" y="0px"
	 viewBox="14.995 173 384.009 464" style="enable-background:new 14.995 173 384.009 464;" xml:space="preserve">
<style type="text/css">
	.st0{fill:url(#SVGID_1_);}
	.st1{fill:url(#SVGID_2_);}
	.st2{fill:url(#SVGID_3_);}
</style>
<linearGradient id="SVGID_1_" gradientUnits="userSpaceOnUse" x1="206.9998" y1="173" x2="206.9998" y2="637">
	<stop  offset="0" style="stop-color:#32A457"/>
	<stop  offset="1" style="stop-color:#267D42"/>
</linearGradient>
<path class="st0" d="M387.152,277c-11.872-20.512-35.776-28.104-58.896-35.432c-11.509-3.171-22.655-7.536-33.256-13.024
	c-9.62-6.24-18.552-13.48-26.648-21.6C251.2,191.024,231.752,173,207,173s-44.2,18.024-61.36,33.936
	c-8.093,8.122-17.023,15.365-26.64,21.608c-10.6,5.477-21.743,9.831-33.248,12.992c-23.12,7.328-47.024,14.92-58.896,35.432
	c-11.464,19.816-6.28,44-1.264,67.36C28.625,356.339,30.436,368.625,31,381c-0.566,12.375-2.38,24.662-5.416,36.672
	c-4.984,23.376-10.2,47.544,1.264,67.328c9.124,13.716,22.765,23.801,38.552,28.504l-48.72,62.584
	c-2.712,3.488-2.083,8.514,1.406,11.226c1.676,1.303,3.8,1.886,5.906,1.622l57.2-7.144l14.12,49.408
	c0.827,2.896,3.211,5.082,6.168,5.656c0.501,0.095,1.01,0.144,1.52,0.144c2.47,0.002,4.803-1.138,6.32-3.088l51.088-65.712
	C172.98,580.439,189.494,587.812,207,589c17.506-1.188,34.02-8.561,46.592-20.8l51.088,65.688c1.512,1.959,3.845,3.108,6.32,3.112
	c0.51,0,1.019-0.049,1.52-0.144c2.957-0.574,5.341-2.76,6.168-5.656l14.12-49.4l57.2,7.144c4.384,0.55,8.384-2.558,8.934-6.942
	c0.264-2.106-0.319-4.231-1.622-5.906l-48.68-62.584c15.774-4.713,29.4-14.801,38.512-28.512c11.464-19.816,6.28-44,1.264-67.36
	c-3.033-12-4.848-24.276-5.416-36.64c0.566-12.375,2.38-24.662,5.416-36.672C393.4,320.952,398.616,296.784,387.152,277z
	 M106.36,611.648L94.688,570.8c-1.085-3.789-4.769-6.223-8.68-5.736l-44.8,5.6l40.152-51.616l4.424,1.416
	c11.494,3.163,22.626,7.517,33.216,12.992c9.62,6.24,18.552,13.48,26.648,21.6l2.752,2.544L106.36,611.648z M372.832,570.664
	l-44.8-5.6c-3.911-0.487-7.595,1.947-8.68,5.736l-11.712,40.848l-42.032-54.04l2.752-2.544c8.093-8.122,17.023-15.365,26.64-21.608
	c10.6-5.477,21.743-9.831,33.248-12.992l4.424-1.416L372.832,570.664z M372.768,421c4.584,21.352,8.904,41.52,0.536,56
	c-8.8,15.152-28.744,21.488-49.888,28.2c-12.613,3.502-24.819,8.329-36.416,14.4c-10.658,6.83-20.55,14.788-29.504,23.736
	C241.024,558.6,225.48,573,207,573s-34.024-14.4-50.488-29.664c-8.957-8.949-18.851-16.906-29.512-23.736
	c-11.599-6.072-23.809-10.899-36.424-14.4c-21.144-6.712-41.12-13.048-49.888-28.2c-8.368-14.472-4.048-34.64,0.536-56
	c3.299-13.099,5.235-26.503,5.776-40c-0.538-13.497-2.47-26.901-5.768-40c-4.584-21.352-8.904-41.52-0.536-56
	c8.8-15.152,28.744-21.488,49.888-28.2c12.613-3.502,24.819-8.329,36.416-14.4c10.658-6.83,20.55-14.788,29.504-23.736
	C172.976,203.4,188.52,189,207,189s34.024,14.4,50.488,29.664c8.957,8.949,18.851,16.906,29.512,23.736
	c11.599,6.072,23.809,10.899,36.424,14.4c21.144,6.712,41.12,13.048,49.888,28.2c8.368,14.472,4.048,34.64-0.536,56
	c-3.299,13.099-5.235,26.503-5.776,40C367.538,394.497,369.47,407.901,372.768,421z"/>
<linearGradient id="SVGID_2_" gradientUnits="userSpaceOnUse" x1="207" y1="237" x2="207" y2="525">
	<stop  offset="0" style="stop-color:#32A457"/>
	<stop  offset="1" style="stop-color:#267D42"/>
</linearGradient>
<path class="st1" d="M207,237c-79.529,0-144,64.471-144,144s64.471,144,144,144s144-64.471,144-144
	C350.907,301.509,286.491,237.093,207,237z M207,509c-70.692,0-128-57.308-128-128s57.308-128,128-128s128,57.308,128,128
	C334.916,451.658,277.658,508.916,207,509z"/>
<linearGradient id="SVGID_3_" gradientUnits="userSpaceOnUse" x1="206.9926" y1="283.3757" x2="206.9926" y2="466.3602">
	<stop  offset="0" style="stop-color:#32A457"/>
	<stop  offset="1" style="stop-color:#267D42"/>
</linearGradient>
<path class="st2" d="M286.376,341H237.4l-15.2-46.616c-2.759-8.395-11.801-12.963-20.196-10.204
	c-4.829,1.587-8.617,5.375-10.204,10.204L176.64,341h-49.016c-8.837-0.004-16.004,7.155-16.008,15.992
	c-0.003,5.12,2.445,9.931,6.584,12.944l39.648,28.8l-15.144,46.616c-2.732,8.404,1.867,17.431,10.27,20.162
	c4.873,1.584,10.209,0.738,14.354-2.274L207,434.448l39.656,28.8c5.586,4.15,13.23,4.15,18.816,0
	c5.669-4.029,8.029-11.297,5.808-17.888l-15.144-46.624l39.648-28.8c7.144-5.2,8.72-15.208,3.52-22.352
	C296.295,343.449,291.49,341.003,286.376,341z M286.376,357l-44.352,32.216c-2.806,2.039-3.979,5.654-2.904,8.952l16.944,52.144
	l-44.36-32.224c-2.803-2.035-6.597-2.035-9.4,0l-44.36,32.224l16.936-52.144c1.071-3.296-0.101-6.906-2.904-8.944L127.624,357
	h54.824c3.466,0,6.537-2.232,7.608-5.528L207,299.328l16.944,52.136c1.071,3.296,4.142,5.528,7.608,5.528L286.376,357z"/>
</svg>
