<?xml version="1.0" encoding="iso-8859-1"?>
<!-- Generator: Adobe Illustrator 17.1.0, SVG Export Plug-In . SVG Version: 6.00 Build 0)  -->
<!DOCTYPE svg PUBLIC "-//W3C//DTD SVG 1.1//EN" "http://www.w3.org/Graphics/SVG/1.1/DTD/svg11.dtd">
<svg version="1.1" id="&#x421;&#x43B;&#x43E;&#x439;_1"
	 xmlns="http://www.w3.org/2000/svg" xmlns:xlink="http://www.w3.org/1999/xlink" x="0px" y="0px" viewBox="0 0 299.849 84.778"
	 style="enable-background:new 0 0 299.849 84.778;" xml:space="preserve">
<g>
	<g>
		<defs>
			<path id="SVGID_1_" d="M11.846,73.866C4.542,66.803,0,56.905,0,45.943c0-1.005,0.038-2.006,0.113-2.994l24.167-0.172
				c0,0,1.868-1.347-0.332,13.063c-2.2,14.411-11.881,17.601-11.881,17.601L11.846,73.866z M17.875,13.25
				c2.894-1.861,6.052-3.346,9.405-4.388c0.268,1.263,0.552,4.774-2.313,6.305C21.7,16.907,17.948,13.319,17.875,13.25z
				 M77.535,42.792c0.082,1.038,0.128,2.089,0.128,3.15c0,16.035-9.716,29.794-23.58,35.722l0.091-38.695L77.535,42.792z
				 M65.472,17.693c4.703,4.439,8.298,10.037,10.327,16.337l-21.674,0.251c0,0-0.818-9.008,4.847-13.629
				C61.981,18.201,64.08,17.682,65.472,17.693z M38.832,7.112c6.625,0,12.861,1.661,18.319,4.588
				c-3.541,2.043-10.917,7.592-11.999,18.729c-1.396,14.396-0.065,52.078-0.001,53.832c-2.057,0.335-4.167,0.517-6.319,0.517
				c-7.019,0-13.604-1.866-19.285-5.121c0.075-0.056,0.147-0.109,0.22-0.165c10.011-7.589,12.652-22.33,12.872-24.531
				c0.22-2.201,0.989-15.29,0.55-18.04c-0.441-2.75-2.971-2.641-3.849-2.641H1.784c1.888-6.005,5.197-11.382,9.533-15.735
				c2.409,2.985,8.679,8.962,17.501,4.211c8.094-4.36,7.765-11.633,6.877-15.518C36.729,7.154,37.775,7.112,38.832,7.112z"/>
		</defs>
		<clipPath id="SVGID_2_">
			<use xlink:href="#SVGID_1_"  style="overflow:visible;"/>
		</clipPath>
		<g transform="matrix(1 0 0 1 0 -3.205492e-007)" style="clip-path:url(#SVGID_2_);">
			
				<image style="overflow:visible;" width="215" height="215" xlink:href="8E1B19DA.jpg"  transform="matrix(0.3617 0 0 0.3617 0 7.1121)">
			</image>
		</g>
	</g>
	<g>
		<path style="fill:#040007;" d="M271.691,34.256h4.904v16.863c0,8.976,6.164,9.226,9.888,9.226c1.302,0,1.762-0.007,5.487-0.013
			l0.007-7.075c-2.848,0.024-6.759,0.352-6.759-3.051v-15.95h6.325v-6.679h-6.325V17.292h-8.623v10.285h-4.904V34.256z"/>
		<path style="fill:#040007;" d="M223.576,27.577h4.899v-5.412c0-8.972,6.167-9.223,9.888-9.223c1.302,0,1.762,0.003,5.487,0.007
			l0.007,7.082c-2.847-0.027-6.759-0.352-6.759,3.047v4.498h6.327v6.679h-6.327v26.09h-8.623v-26.09h-4.899V27.577z"/>
		<path style="fill:#040007;" d="M213.628,60.427c-1.691,0.338-3.067,0.517-4.105,0.517c-1.51,0-2.813-0.244-3.884-0.727
			c-1.086-0.48-1.884-1.238-2.415-2.252c-0.523-1.015-0.798-2.834-0.798-5.445V30.519h-4.61v-2.932h4.61v-8.408l3.933-2.469v10.877
			h6.23v2.932h-6.23v21.5c0,1.529,0.093,2.675,0.288,3.45c0.194,0.758,0.585,1.319,1.153,1.691c0.572,0.369,1.331,0.561,2.254,0.561
			c0.72,0,1.74-0.142,3.071-0.399L213.628,60.427z M161.459,51.539l3.947-0.646c0.583,2.5,1.718,4.319,3.423,5.459
			c1.691,1.126,3.783,1.695,6.267,1.695c1.722,0,3.247-0.291,4.578-0.856c1.351-0.565,2.372-1.305,3.056-2.222
			c0.697-0.92,1.057-2.012,1.057-3.287c0-1.177-0.392-2.172-1.187-2.997c-0.798-0.838-1.851-1.495-3.184-1.962
			c-1.318-0.466-3.201-0.967-5.616-1.468c-7.551-1.576-11.333-4.637-11.333-9.196c0-2.851,1.118-5.09,3.343-6.733
			c2.222-1.644,5.034-2.466,8.396-2.466c6.692,0,10.779,2.885,12.274,8.682l-3.813,0.569c-0.717-2.32-1.676-3.917-2.892-4.786
			c-1.214-0.869-3.052-1.306-5.508-1.306c-1.554,0-2.953,0.227-4.185,0.694c-1.233,0.467-2.161,1.075-2.762,1.85
			c-0.617,0.775-0.923,1.694-0.923,2.756c0,1.079,0.278,1.982,0.824,2.74c0.569,0.737,1.642,1.414,3.235,2.012
			c1.59,0.599,3.617,1.174,6.105,1.739c4.689,1.079,7.745,2.371,9.175,3.913c1.424,1.529,2.143,3.335,2.143,5.415
			c0,2.09-0.521,3.862-1.546,5.347c-1.021,1.464-2.503,2.624-4.464,3.463c-1.963,0.839-4.255,1.255-6.896,1.255
			c-1.711,0-3.25-0.159-4.645-0.484c-1.399-0.321-2.669-0.822-3.805-1.501c-1.15-0.67-2.139-1.576-2.999-2.733
			C162.66,55.337,161.977,53.696,161.459,51.539z M148.465,60.427h-3.926v-4.863c-2.89,3.737-6.446,5.587-10.648,5.587
			c-7.486,0-11.224-4.045-11.224-12.142V27.587h3.932v20.391c0,3.561,0.697,6.104,2.078,7.603c1.395,1.498,3.26,2.256,5.601,2.256
			c1.539,0,2.985-0.325,4.336-0.967c1.33-0.642,2.531-1.643,3.568-2.962c1.042-1.339,1.689-2.885,1.965-4.64
			c0.264-1.752,0.392-4.234,0.392-7.427V27.587h3.926V60.427z M96.525,73.055l0.795-3.348c0.91,0.223,1.722,0.352,2.422,0.352
			c0.842,0,1.541-0.159,2.09-0.48c0.555-0.325,0.976-0.838,1.268-1.532c0.306-0.693,0.456-2.208,0.456-4.529V27.587h3.895v35.468
			c0,1.884-0.048,3.379-0.147,4.495c-0.096,1.096-0.386,2.141-0.908,3.122c-0.502,0.998-1.251,1.755-2.224,2.289
			c-0.992,0.528-2.208,0.805-3.636,0.805C99.658,73.766,98.326,73.522,96.525,73.055z M107.451,20.789h-3.895v-5.685h3.895V20.789z"
			/>
		<path d="M285.866,72.832c0,1.005,0.013,2.814,0.042,3.321c1.382,0.007,1.546,0.013,2.318,0.013c0.629,0,1.062-0.318,1.522-0.862
			c0.457-0.538,0.69-1.35,0.69-2.419c0-1.102-0.223-1.911-0.661-2.435c-0.44-0.521-0.971-0.785-1.593-0.785
			c-0.702,0-1.449-0.003-2.312,0.007C285.886,71.06,285.866,71.993,285.866,72.832 M285.879,77.107h-1.341V65.473h1.443l0.01,3.031
			c0.852,0.013,1.37-0.007,2.319-0.007c0.523,0,1.018,0.102,1.484,0.311c0.465,0.21,0.849,0.5,1.152,0.879
			c0.301,0.379,0.536,0.835,0.709,1.37c0.172,0.531,0.255,1.099,0.255,1.708c0,1.441-0.36,2.557-1.075,3.341
			c-0.727,0.788-1.488,0.981-2.496,0.981C286.023,77.087,286.505,77.046,285.879,77.107z M275.669,77.107v-1.252
			c-0.661,0.954-1.561,1.431-2.689,1.431c-0.501,0-0.964-0.091-1.404-0.281c-0.431-0.196-0.754-0.433-0.962-0.72
			c-0.21-0.288-0.36-0.64-0.443-1.059c-0.061-0.281-0.09-0.724-0.09-1.333v-5.222h1.446v4.671c0,0.744,0.029,1.248,0.086,1.505
			c0.09,0.375,0.281,0.67,0.575,0.879c0.291,0.217,0.651,0.325,1.086,0.325c0.431,0,0.834-0.108,1.207-0.328
			c0.379-0.22,0.648-0.518,0.807-0.896c0.151-0.372,0.23-0.927,0.23-1.644v-4.512h1.444v8.435H275.669z M261.114,77.107V65.473
			h1.443v11.635H261.114z M253.179,74.023l1.409,0.193c-0.154,0.964-0.55,1.715-1.182,2.256c-0.639,0.548-1.424,0.815-2.343,0.815
			c-1.165,0-2.101-0.375-2.8-1.126c-0.709-0.754-1.062-1.833-1.062-3.237c0-0.91,0.155-1.701,0.456-2.385
			c0.306-0.68,0.766-1.191,1.385-1.532c0.622-0.342,1.297-0.511,2.028-0.511c0.92,0,1.676,0.23,2.261,0.69
			c0.587,0.467,0.964,1.123,1.126,1.975l-1.388,0.21c-0.137-0.565-0.374-0.988-0.712-1.278c-0.338-0.284-0.748-0.426-1.23-0.426
			c-0.725,0-1.315,0.257-1.772,0.771c-0.453,0.514-0.68,1.332-0.68,2.448c0,1.13,0.22,1.948,0.655,2.463
			c0.438,0.514,1.015,0.771,1.711,0.771c0.568,0,1.043-0.172,1.417-0.517C252.838,75.261,253.08,74.733,253.179,74.023z
			 M225.167,72.088h4.732c-0.061-0.711-0.244-1.241-0.543-1.597c-0.457-0.548-1.048-0.825-1.779-0.825
			c-0.661,0-1.216,0.223-1.664,0.656C225.463,70.762,225.218,71.351,225.167,72.088z M229.885,74.381l1.488,0.192
			c-0.23,0.856-0.665,1.529-1.297,2.002c-0.638,0.477-1.442,0.71-2.427,0.71c-1.241,0-2.222-0.375-2.949-1.136
			c-0.726-0.754-1.093-1.82-1.093-3.189c0-1.414,0.371-2.509,1.103-3.294c0.734-0.784,1.688-1.17,2.86-1.17
			c1.131,0,2.056,0.379,2.775,1.15c0.719,0.764,1.079,1.843,1.079,3.233c0,0.081,0,0.21-0.007,0.379h-6.331
			c0.054,0.92,0.316,1.634,0.79,2.124c0.472,0.494,1.065,0.737,1.774,0.737c0.524,0,0.978-0.142,1.348-0.412
			C229.375,75.426,229.666,74.983,229.885,74.381z M212.887,77.107l-3.204-8.435h1.543l1.816,5.053
			c0.198,0.544,0.38,1.109,0.55,1.697c0.127-0.443,0.303-0.974,0.536-1.603l1.887-5.148h1.481l-3.221,8.435H212.887z
			 M201.598,77.107v-8.435h1.441v8.435H201.598z M201.598,67.099v-1.627h1.441v1.627H201.598z M187.506,74.591l1.424-0.227
			c0.079,0.565,0.306,0.998,0.669,1.302c0.367,0.301,0.881,0.453,1.536,0.453c0.661,0,1.15-0.135,1.473-0.402
			c0.321-0.264,0.482-0.578,0.482-0.94c0-0.321-0.144-0.575-0.431-0.761c-0.201-0.129-0.69-0.288-1.475-0.487
			c-1.052-0.261-1.782-0.488-2.191-0.684c-0.404-0.189-0.712-0.456-0.925-0.798c-0.211-0.338-0.316-0.717-0.316-1.126
			c0-0.375,0.086-0.721,0.259-1.045c0.176-0.318,0.415-0.582,0.709-0.795c0.223-0.162,0.528-0.301,0.913-0.416
			c0.389-0.112,0.798-0.169,1.245-0.169c0.665,0,1.246,0.095,1.75,0.288c0.504,0.186,0.874,0.45,1.118,0.774
			c0.238,0.332,0.403,0.765,0.494,1.309l-1.41,0.2c-0.061-0.44-0.248-0.784-0.553-1.032c-0.306-0.247-0.737-0.369-1.299-0.369
			c-0.655,0-1.128,0.108-1.409,0.325c-0.281,0.217-0.424,0.474-0.424,0.765c0,0.183,0.058,0.348,0.176,0.494
			c0.118,0.155,0.298,0.284,0.55,0.385c0.144,0.05,0.568,0.173,1.27,0.365c1.016,0.267,1.725,0.487,2.132,0.659
			c0.402,0.172,0.719,0.423,0.949,0.747c0.23,0.325,0.345,0.734,0.345,1.224c0,0.474-0.137,0.92-0.417,1.339
			c-0.288,0.419-0.69,0.744-1.214,0.974c-0.533,0.23-1.129,0.342-1.794,0.342c-1.104,0-1.945-0.227-2.528-0.68
			C188.036,76.153,187.669,75.481,187.506,74.591z M179.191,77.107v-1.252c-0.663,0.954-1.554,1.431-2.69,1.431
			c-0.499,0-0.962-0.091-1.398-0.281c-0.435-0.196-0.758-0.433-0.967-0.72c-0.208-0.288-0.359-0.64-0.442-1.059
			c-0.054-0.281-0.086-0.724-0.086-1.333v-5.222h1.441v4.671c0,0.744,0.029,1.248,0.086,1.505c0.091,0.375,0.281,0.67,0.577,0.879
			c0.291,0.217,0.654,0.325,1.086,0.325c0.431,0,0.834-0.108,1.211-0.328c0.379-0.22,0.644-0.518,0.801-0.896
			c0.159-0.372,0.238-0.927,0.238-1.644v-4.512h1.438v8.435H179.191z M164.637,77.107V65.473h1.443v11.635H164.637z M156.706,74.023
			l1.409,0.193c-0.157,0.964-0.55,1.715-1.186,2.256c-0.638,0.548-1.42,0.815-2.343,0.815c-1.162,0-2.097-0.375-2.799-1.126
			c-0.707-0.754-1.064-1.833-1.064-3.237c0-0.91,0.156-1.701,0.46-2.385c0.302-0.68,0.763-1.191,1.385-1.532
			c0.622-0.342,1.294-0.511,2.024-0.511c0.92,0,1.679,0.23,2.261,0.69c0.59,0.467,0.964,1.123,1.129,1.975l-1.392,0.21
			c-0.137-0.565-0.367-0.988-0.712-1.278c-0.338-0.284-0.748-0.426-1.23-0.426c-0.727,0-1.312,0.257-1.769,0.771
			c-0.453,0.514-0.68,1.332-0.68,2.448c0,1.13,0.22,1.948,0.655,2.463c0.438,0.514,1.009,0.771,1.715,0.771
			c0.561,0,1.035-0.172,1.417-0.517C156.361,75.261,156.604,74.733,156.706,74.023z M136.652,77.107l3.102-4.366l-2.871-4.069h1.769
			l1.344,1.995c0.249,0.372,0.445,0.676,0.582,0.913c0.245-0.338,0.46-0.643,0.654-0.917l1.41-1.992h1.76l-2.89,4.069l3.081,4.366
			h-1.75l-1.759-2.597l-0.402-0.63l-2.27,3.227H136.652z M124.273,72.088h4.733c-0.061-0.711-0.244-1.241-0.543-1.597
			c-0.456-0.548-1.048-0.825-1.779-0.825c-0.661,0-1.216,0.223-1.667,0.656C124.573,70.762,124.322,71.351,124.273,72.088z
			 M128.993,74.381l1.488,0.192c-0.23,0.856-0.668,1.529-1.297,2.002c-0.638,0.477-1.442,0.71-2.428,0.71
			c-1.24,0-2.222-0.375-2.948-1.136c-0.725-0.754-1.09-1.82-1.09-3.189c0-1.414,0.367-2.509,1.099-3.294
			c0.736-0.784,1.689-1.17,2.861-1.17c1.128,0,2.056,0.379,2.775,1.15c0.719,0.764,1.079,1.843,1.079,3.233
			c0,0.081-0.004,0.21-0.007,0.379h-6.333c0.054,0.92,0.318,1.634,0.79,2.124c0.475,0.494,1.067,0.737,1.774,0.737
			c0.526,0,0.979-0.142,1.349-0.412C128.479,75.426,128.77,74.983,128.993,74.381z"/>
		<g>
			<rect x="253.349" y="27.577" style="fill-rule:evenodd;clip-rule:evenodd;fill:#040007;" width="8.853" height="32.803"/>
			<rect x="253.349" y="13.666" style="fill-rule:evenodd;clip-rule:evenodd;fill:#040007;" width="8.853" height="7.907"/>
		</g>
	</g>
</g>
<g>
	<g>
		<defs>
			<path id="SVGID_3_" d="M118.169,364.355c-7.303-7.063-11.846-16.961-11.846-27.923c0-1.005,0.038-2.006,0.113-2.994l24.167-0.172
				c0,0,1.868-1.347-0.332,13.063c-2.2,14.411-11.881,17.601-11.881,17.601L118.169,364.355z M124.198,303.738
				c2.894-1.861,6.052-3.346,9.405-4.388c0.268,1.263,0.552,4.774-2.313,6.305C128.023,307.396,124.271,303.808,124.198,303.738z
				 M183.858,333.281c0.082,1.038,0.128,2.089,0.128,3.15c0,16.035-9.716,29.794-23.58,35.722l0.091-38.695L183.858,333.281z
				 M171.795,308.182c4.703,4.439,8.298,10.037,10.327,16.337l-21.674,0.251c0,0-0.818-9.008,4.847-13.629
				C168.304,308.689,170.403,308.17,171.795,308.182z M145.155,297.601c6.625,0,12.861,1.661,18.319,4.588
				c-3.541,2.043-10.917,7.592-11.999,18.729c-1.396,14.396-0.065,52.078-0.001,53.832c-2.057,0.335-4.167,0.517-6.319,0.517
				c-7.019,0-13.604-1.866-19.285-5.121c0.075-0.056,0.147-0.109,0.22-0.165c10.011-7.589,12.652-22.33,12.872-24.531
				c0.22-2.201,0.989-15.29,0.55-18.04c-0.441-2.75-2.971-2.641-3.849-2.641h-27.555c1.888-6.005,5.197-11.382,9.533-15.735
				c2.409,2.985,8.679,8.962,17.501,4.211c8.094-4.36,7.765-11.633,6.877-15.518C143.053,297.642,144.098,297.601,145.155,297.601z"
				/>
		</defs>
		<clipPath id="SVGID_4_">
			<use xlink:href="#SVGID_3_"  style="overflow:visible;"/>
		</clipPath>
		<g transform="matrix(1 0 0 1 3.517936e-006 5.402662e-006)" style="clip-path:url(#SVGID_4_);">
			
				<image style="overflow:visible;" width="215" height="215" xlink:href="8E1B19D9.jpg"  transform="matrix(0.3617 0 0 0.3617 106.3231 297.6007)">
			</image>
		</g>
	</g>
	<g>
		<path style="fill:#040007;" d="M190.54,406.076h2.833v9.741c0,5.185,3.561,5.329,5.711,5.329c0.752,0,1.018-0.004,3.17-0.008
			l0.004-4.087c-1.645,0.014-3.904,0.203-3.904-1.762v-9.213h3.653v-3.858h-3.653v-5.941h-4.981v5.941h-2.833V406.076z"/>
		<path style="fill:#040007;" d="M162.747,402.218h2.83v-3.126c0-5.183,3.563-5.327,5.711-5.327c0.752,0,1.018,0.002,3.17,0.004
			l0.004,4.091c-1.645-0.016-3.904-0.203-3.904,1.76v2.598h3.655v3.858h-3.655v15.07h-4.981v-15.07h-2.83V402.218z"/>
		<path style="fill:#040007;" d="M157,421.193c-0.977,0.195-1.772,0.299-2.371,0.299c-0.872,0-1.625-0.141-2.244-0.42
			c-0.627-0.277-1.088-0.715-1.395-1.301c-0.302-0.586-0.461-1.637-0.461-3.145v-12.708h-2.663v-1.694h2.663v-4.857l2.272-1.426
			v6.283h3.599v1.694h-3.599v12.419c0,0.883,0.054,1.545,0.166,1.993c0.112,0.438,0.338,0.762,0.666,0.977
			c0.33,0.213,0.769,0.324,1.302,0.324c0.416,0,1.005-0.082,1.774-0.23L157,421.193z M126.866,416.059l2.28-0.373
			c0.337,1.444,0.992,2.495,1.977,3.153c0.977,0.651,2.185,0.979,3.62,0.979c0.994,0,1.875-0.168,2.644-0.494
			c0.78-0.326,1.37-0.754,1.765-1.283c0.402-0.531,0.611-1.162,0.611-1.899c0-0.68-0.227-1.254-0.686-1.731
			c-0.461-0.484-1.069-0.863-1.839-1.133c-0.761-0.269-1.849-0.559-3.244-0.848c-4.362-0.91-6.546-2.678-6.546-5.312
			c0-1.647,0.646-2.94,1.931-3.889c1.283-0.95,2.908-1.424,4.85-1.424c3.865,0,6.226,1.666,7.09,5.015l-2.203,0.328
			c-0.414-1.34-0.968-2.262-1.67-2.764c-0.701-0.502-1.763-0.754-3.181-0.754c-0.898,0-1.706,0.131-2.418,0.401
			c-0.712,0.27-1.248,0.621-1.595,1.069c-0.356,0.447-0.533,0.979-0.533,1.592c0,0.623,0.16,1.145,0.476,1.583
			c0.328,0.426,0.948,0.817,1.869,1.162c0.918,0.346,2.089,0.678,3.526,1.004c2.709,0.623,4.474,1.369,5.3,2.26
			c0.823,0.883,1.238,1.926,1.238,3.128c0,1.207-0.301,2.231-0.893,3.089c-0.59,0.846-1.446,1.516-2.579,2
			c-1.134,0.485-2.458,0.725-3.983,0.725c-0.989,0-1.878-0.092-2.683-0.279c-0.808-0.186-1.542-0.475-2.198-0.867
			c-0.664-0.387-1.236-0.911-1.732-1.579C127.559,418.253,127.165,417.305,126.866,416.059z M119.36,421.193h-2.268v-2.809
			c-1.669,2.159-3.723,3.227-6.151,3.227c-4.324,0-6.483-2.337-6.483-7.014v-12.374h2.271v11.778c0,2.057,0.402,3.526,1.201,4.392
			c0.806,0.865,1.883,1.303,3.235,1.303c0.889,0,1.724-0.187,2.505-0.559c0.769-0.371,1.462-0.949,2.061-1.711
			c0.602-0.774,0.976-1.666,1.135-2.68c0.152-1.012,0.227-2.446,0.227-4.29v-8.233h2.268V421.193z M89.357,428.488l0.459-1.934
			c0.526,0.129,0.994,0.203,1.399,0.203c0.487,0,0.89-0.092,1.207-0.278c0.32-0.188,0.564-0.484,0.733-0.885
			c0.177-0.4,0.264-1.276,0.264-2.616v-20.755h2.25v20.488c0,1.088-0.027,1.952-0.085,2.596c-0.056,0.633-0.223,1.237-0.525,1.803
			c-0.29,0.576-0.723,1.014-1.285,1.322c-0.573,0.305-1.276,0.465-2.1,0.465C91.167,428.898,90.398,428.757,89.357,428.488z
			 M95.668,398.297h-2.25v-3.284h2.25V398.297z"/>
		<path d="M198.728,428.359c0,0.58,0.008,1.625,0.024,1.919c0.798,0.004,0.893,0.008,1.339,0.008c0.363,0,0.614-0.184,0.879-0.498
			c0.264-0.311,0.399-0.78,0.399-1.397c0-0.637-0.129-1.104-0.382-1.406c-0.254-0.301-0.561-0.453-0.92-0.453
			c-0.405,0-0.837-0.002-1.335,0.004C198.739,427.335,198.728,427.874,198.728,428.359 M198.735,430.828h-0.775v-6.721h0.833
			l0.006,1.751c0.492,0.008,0.791-0.004,1.339-0.004c0.302,0,0.588,0.059,0.857,0.18c0.269,0.121,0.49,0.289,0.665,0.508
			c0.174,0.219,0.31,0.482,0.409,0.791c0.1,0.307,0.147,0.635,0.147,0.987c0,0.832-0.208,1.477-0.621,1.93
			c-0.42,0.455-0.86,0.567-1.442,0.567C198.818,430.817,199.097,430.793,198.735,430.828z M192.838,430.828v-0.723
			c-0.382,0.551-0.902,0.826-1.553,0.826c-0.289,0-0.557-0.053-0.811-0.162c-0.249-0.113-0.436-0.25-0.556-0.416
			c-0.121-0.166-0.208-0.369-0.256-0.612c-0.035-0.162-0.052-0.418-0.052-0.77v-3.016h0.835v2.698c0,0.43,0.017,0.721,0.05,0.869
			c0.052,0.217,0.162,0.387,0.332,0.508c0.168,0.125,0.376,0.188,0.627,0.188c0.249,0,0.482-0.063,0.697-0.189
			c0.219-0.127,0.374-0.299,0.466-0.518c0.087-0.215,0.133-0.535,0.133-0.95v-2.606h0.834v4.872H192.838z M184.43,430.828v-6.721
			h0.833v6.721H184.43z M179.847,429.047l0.814,0.111c-0.089,0.557-0.317,0.99-0.683,1.303c-0.369,0.317-0.822,0.471-1.354,0.471
			c-0.673,0-1.213-0.217-1.618-0.65c-0.409-0.436-0.613-1.059-0.613-1.87c0-0.526,0.09-0.983,0.264-1.377
			c0.177-0.393,0.443-0.688,0.8-0.885c0.36-0.197,0.749-0.295,1.171-0.295c0.531,0,0.968,0.133,1.306,0.399
			c0.339,0.27,0.557,0.649,0.65,1.141l-0.802,0.121c-0.079-0.326-0.216-0.57-0.411-0.738c-0.195-0.164-0.432-0.246-0.71-0.246
			c-0.419,0-0.76,0.149-1.024,0.446c-0.262,0.297-0.393,0.77-0.393,1.414c0,0.653,0.127,1.125,0.378,1.423
			c0.253,0.297,0.586,0.445,0.989,0.445c0.328,0,0.603-0.099,0.818-0.299C179.65,429.762,179.789,429.457,179.847,429.047z
			 M163.666,427.929h2.733c-0.035-0.41-0.141-0.717-0.314-0.922c-0.264-0.316-0.606-0.477-1.028-0.477
			c-0.382,0-0.702,0.129-0.961,0.379C163.837,427.163,163.695,427.503,163.666,427.929z M166.391,429.254l0.86,0.111
			c-0.133,0.494-0.384,0.883-0.749,1.157c-0.368,0.275-0.833,0.41-1.402,0.41c-0.717,0-1.283-0.217-1.703-0.656
			c-0.419-0.436-0.631-1.051-0.631-1.842c0-0.817,0.214-1.449,0.637-1.903c0.424-0.453,0.975-0.676,1.652-0.676
			c0.653,0,1.188,0.219,1.603,0.664c0.415,0.441,0.623,1.065,0.623,1.868c0,0.047,0,0.121-0.004,0.219h-3.657
			c0.031,0.531,0.183,0.944,0.456,1.227c0.273,0.285,0.615,0.426,1.025,0.426c0.303,0,0.565-0.082,0.779-0.238
			C166.096,429.857,166.264,429.602,166.391,429.254z M156.572,430.828l-1.851-4.872h0.891l1.049,2.919
			c0.114,0.314,0.22,0.641,0.317,0.981c0.073-0.256,0.175-0.563,0.31-0.926l1.09-2.974h0.856l-1.861,4.872H156.572z
			 M150.051,430.828v-4.872h0.832v4.872H150.051z M150.051,425.048v-0.94h0.832v0.94H150.051z M141.912,429.375l0.823-0.131
			c0.046,0.326,0.177,0.576,0.387,0.752c0.212,0.174,0.509,0.262,0.887,0.262c0.382,0,0.664-0.078,0.851-0.232
			c0.185-0.152,0.278-0.334,0.278-0.543c0-0.185-0.083-0.332-0.249-0.439c-0.116-0.074-0.399-0.166-0.852-0.281
			c-0.607-0.151-1.029-0.282-1.266-0.395c-0.234-0.109-0.411-0.264-0.534-0.461c-0.122-0.195-0.183-0.414-0.183-0.65
			c0-0.217,0.05-0.416,0.149-0.604c0.102-0.184,0.239-0.336,0.409-0.459c0.129-0.094,0.305-0.174,0.527-0.24
			c0.225-0.064,0.461-0.098,0.719-0.098c0.384,0,0.72,0.055,1.011,0.166c0.291,0.107,0.505,0.26,0.646,0.447
			c0.138,0.192,0.233,0.442,0.285,0.756l-0.815,0.115c-0.035-0.254-0.143-0.453-0.319-0.596c-0.177-0.143-0.426-0.213-0.75-0.213
			c-0.378,0-0.652,0.063-0.814,0.188c-0.162,0.125-0.245,0.274-0.245,0.442c0,0.105,0.033,0.201,0.102,0.285
			c0.068,0.09,0.172,0.164,0.317,0.223c0.083,0.029,0.328,0.1,0.734,0.211c0.587,0.154,0.996,0.281,1.232,0.381
			c0.232,0.099,0.415,0.244,0.548,0.432c0.133,0.188,0.199,0.424,0.199,0.707c0,0.274-0.079,0.531-0.241,0.774
			c-0.166,0.242-0.399,0.43-0.702,0.562c-0.308,0.133-0.652,0.197-1.036,0.197c-0.638,0-1.123-0.131-1.46-0.393
			C142.217,430.277,142.005,429.889,141.912,429.375z M137.108,430.828v-0.723c-0.383,0.551-0.898,0.826-1.554,0.826
			c-0.288,0-0.556-0.053-0.808-0.162c-0.251-0.113-0.438-0.25-0.559-0.416c-0.12-0.166-0.207-0.369-0.255-0.612
			c-0.031-0.162-0.05-0.418-0.05-0.77v-3.016h0.833v2.698c0,0.43,0.016,0.721,0.05,0.869c0.053,0.217,0.162,0.387,0.333,0.508
			c0.168,0.125,0.378,0.188,0.627,0.188c0.249,0,0.482-0.063,0.699-0.189c0.219-0.127,0.372-0.299,0.463-0.518
			c0.092-0.215,0.138-0.535,0.138-0.95v-2.606h0.831v4.872H137.108z M128.701,430.828v-6.721h0.833v6.721H128.701z M124.12,429.047
			l0.814,0.111c-0.091,0.557-0.317,0.99-0.685,1.303c-0.368,0.317-0.82,0.471-1.354,0.471c-0.671,0-1.211-0.217-1.617-0.65
			c-0.408-0.436-0.614-1.059-0.614-1.87c0-0.526,0.09-0.983,0.266-1.377c0.175-0.393,0.441-0.688,0.8-0.885
			c0.36-0.197,0.747-0.295,1.169-0.295c0.531,0,0.97,0.133,1.306,0.399c0.341,0.27,0.557,0.649,0.652,1.141l-0.804,0.121
			c-0.079-0.326-0.212-0.57-0.411-0.738c-0.195-0.164-0.432-0.246-0.71-0.246c-0.42,0-0.758,0.149-1.022,0.446
			c-0.262,0.297-0.393,0.77-0.393,1.414c0,0.653,0.127,1.125,0.378,1.423c0.253,0.297,0.583,0.445,0.99,0.445
			c0.324,0,0.598-0.099,0.819-0.299C123.921,429.762,124.061,429.457,124.12,429.047z M112.536,430.828l1.792-2.522l-1.659-2.35
			h1.022l0.777,1.153c0.144,0.215,0.257,0.391,0.336,0.528c0.142-0.195,0.266-0.371,0.378-0.53l0.815-1.151h1.017l-1.669,2.35
			l1.78,2.522h-1.011l-1.016-1.5l-0.232-0.364l-1.311,1.864H112.536z M105.386,427.929h2.734c-0.035-0.41-0.141-0.717-0.314-0.922
			c-0.264-0.316-0.606-0.477-1.028-0.477c-0.382,0-0.702,0.129-0.963,0.379C105.559,427.163,105.414,427.503,105.386,427.929z
			 M108.112,429.254l0.859,0.111c-0.133,0.494-0.386,0.883-0.749,1.157c-0.368,0.275-0.833,0.41-1.403,0.41
			c-0.716,0-1.283-0.217-1.703-0.656c-0.419-0.436-0.63-1.051-0.63-1.842c0-0.817,0.212-1.449,0.635-1.903
			c0.425-0.453,0.976-0.676,1.653-0.676c0.651,0,1.188,0.219,1.603,0.664c0.415,0.441,0.623,1.065,0.623,1.868
			c0,0.047-0.002,0.121-0.004,0.219h-3.658c0.031,0.531,0.184,0.944,0.456,1.227c0.275,0.285,0.616,0.426,1.025,0.426
			c0.304,0,0.565-0.082,0.779-0.238C107.815,429.857,107.983,429.602,108.112,429.254z"/>
		<g>
			<rect x="179.944" y="402.218" style="fill-rule:evenodd;clip-rule:evenodd;fill:#040007;" width="5.114" height="18.948"/>
			<rect x="179.944" y="394.182" style="fill-rule:evenodd;clip-rule:evenodd;fill:#040007;" width="5.114" height="4.568"/>
		</g>
	</g>
</g>
</svg>
