<?xml version="1.0" encoding="utf-8"?>
<!-- Generator: Adobe Illustrator 22.1.0, SVG Export Plug-In . SVG Version: 6.00 Build 0)  -->
<svg version="1.1" id="Layer_1" xmlns="http://www.w3.org/2000/svg" xmlns:xlink="http://www.w3.org/1999/xlink" x="0px" y="0px"
	 viewBox="0 0 342.9 304.9" style="enable-background:new 0 0 342.9 304.9;" xml:space="preserve">
<style type="text/css">
	.st0{fill:url(#SVGID_1_);stroke:url(#SVGID_2_);stroke-miterlimit:10;}
</style>
<g>
	<g>
		<linearGradient id="SVGID_1_" gradientUnits="userSpaceOnUse" x1="0" y1="153.973" x2="342.91" y2="153.973">
			<stop  offset="0" style="stop-color:#257D42"/>
			<stop  offset="1" style="stop-color:#31A457"/>
		</linearGradient>
		<linearGradient id="SVGID_2_" gradientUnits="userSpaceOnUse" x1="-0.5" y1="153.973" x2="343.41" y2="153.973">
			<stop  offset="0" style="stop-color:#FFFFFF"/>
			<stop  offset="1" style="stop-color:#000000"/>
		</linearGradient>
		<path class="st0" d="M71.9,102.5c0,4.2-3.4,7.6-7.6,7.6H32.9c-4.2,0-7.6-3.4-7.6-7.6c0-4.2,3.4-7.6,7.6-7.6h31.4
			C68.5,94.9,71.9,98.4,71.9,102.5L71.9,102.5z M234,110.1h31.4c4.2,0,7.6-3.4,7.6-7.6c0-4.2-3.4-7.6-7.6-7.6H234
			c-4.2,0-7.6,3.4-7.6,7.6C226.4,106.7,229.9,110.1,234,110.1L234,110.1z M77.1,141.1H20c-2,0-3.9-0.8-5.4-2.2L2.2,126.4
			C0.8,125,0,123.1,0,121.1V23c0-2,0.8-3.9,2.2-5.4L14.6,5.2C16.1,3.8,18,3,20,3h57.1c2,0,4,0.8,5.4,2.2l12.4,12.4
			c1.4,1.4,2.2,3.4,2.2,5.4V44h104.1V23c0-2,0.8-3.9,2.2-5.4l12.4-12.4c1.4-1.4,3.4-2.2,5.4-2.2h57.1c2,0,3.9,0.8,5.4,2.2l12.4,12.4
			c1.4,1.4,2.2,3.4,2.2,5.4v98.1c0,2-0.8,3.9-2.2,5.4l-12.4,12.4c-1.4,1.4-3.4,2.2-5.4,2.2h-57.1c-2,0-3.9-0.8-5.4-2.2l-12.4-12.4
			c-1.4-1.4-2.2-3.4-2.2-5.4v-20.9H97.1v20.9c0,2-0.8,3.9-2.2,5.4l-12.4,12.4C81.1,140.3,79.1,141.1,77.1,141.1L77.1,141.1z
			 M216.4,117.9l8,8h50.8l8-8V26.2l-8-8h-50.8l-8,8V117.9z M97.1,84.9h13.2v-8.5c0-4.2,3.4-7.6,7.6-7.6c4.2,0,7.6,3.4,7.6,7.6v8.5
			h11.6v-8.5c0-4.2,3.4-7.6,7.6-7.6c4.2,0,7.6,3.4,7.6,7.6v8.5h11.6v-8.5c0-4.2,3.4-7.6,7.6-7.6c4.2,0,7.6,3.4,7.6,7.6v8.5h22.1
			V59.2H97.1V84.9z M74,125.9l8-8V26.2l-8-8H23.2l-8,8v91.8l8,8H74z M342.9,186.9v98.1c0,2-0.8,3.9-2.2,5.4l-12.4,12.4
			c-1.4,1.4-3.4,2.2-5.4,2.2h-57.1c-2,0-3.9-0.8-5.4-2.2L248,290.3c-1.4-1.4-2.2-3.4-2.2-5.4V264H141.7v20.9c0,2-0.8,3.9-2.2,5.4
			l-12.4,12.4c-1.4,1.4-3.4,2.2-5.4,2.2H64.6c-2,0-3.9-0.8-5.4-2.2l-12.4-12.4c-1.4-1.4-2.2-3.4-2.2-5.4v-98.1c0-2,0.8-3.9,2.2-5.4
			l12.4-12.4c1.4-1.4,3.4-2.2,5.4-2.2h57.1c2,0,3.9,0.8,5.4,2.2l12.4,12.4c1.4,1.4,2.2,3.4,2.2,5.4v20.9h104.1v-20.9
			c0-2,0.8-3.9,2.2-5.4l12.4-12.4c1.4-1.4,3.4-2.2,5.4-2.2h57.1c2,0,3.9,0.8,5.4,2.2l12.4,12.4C342.1,182.9,342.9,184.9,342.9,186.9
			L342.9,186.9z M126.5,190l-8-8H67.8l-8,8v91.8l8,8h50.8l8-8V190z M245.8,223H141.7v25.8h13.2v-8.5c0-4.2,3.4-7.6,7.6-7.6
			c4.2,0,7.6,3.4,7.6,7.6v8.5h11.6v-8.5c0-4.2,3.4-7.6,7.6-7.6s7.6,3.4,7.6,7.6v8.5h11.5v-8.5c0-4.2,3.4-7.6,7.6-7.6
			c4.2,0,7.6,3.4,7.6,7.6v8.5h22.1V223z M327.7,190l-8-8h-50.8l-8,8v91.8l8,8h50.8l8-8V190z M310.1,258.8h-31.4
			c-4.2,0-7.6,3.4-7.6,7.6c0,4.2,3.4,7.6,7.6,7.6h31.4c4.2,0,7.6-3.4,7.6-7.6C317.7,262.2,314.3,258.8,310.1,258.8L310.1,258.8z
			 M108.9,258.8H77.4c-4.2,0-7.6,3.4-7.6,7.6c0,4.2,3.4,7.6,7.6,7.6h31.4c4.2,0,7.6-3.4,7.6-7.6
			C116.5,262.2,113.1,258.8,108.9,258.8L108.9,258.8z M108.9,258.8"/>
	</g>
</g>
</svg>
